<?xml version="1.0" encoding="UTF-8"?>
<svg id="Layer_1" data-name="Layer 1" xmlns="http://www.w3.org/2000/svg" viewBox="0 0 1080 1080">
  <defs>
    <style>
      .cls-1 {
        fill: #0029ff;
        stroke-width: 0px;
      }
    </style>
  </defs>
  <g>
    <path class="cls-1" d="m663.55,102.85c-.57,9.71,4.52,30.41-11.62,23.24-2.86-1.27-1.52-18.84-1.66-24.35,4.43-1.06,9.05,1.13,13.28,1.11Z"/>
    <path class="cls-1" d="m967.94,374.03c-.63,9.54,3.97,25.22-9.41,19.92-1.54-.61-.39-14.88-.55-21.03,3.72-.76,6.75,1.08,9.96,1.11Z"/>
  </g>
  <g>
    <path class="cls-1" d="m169.89,289.91c-.29,2.52.47,10.96,0,11.62-2.6,3.7-4.37-6.75-5.53,10.52-.54,8.05.4,16.28,0,24.35-2.76.2-16.85-.66-17.71.55-.38,13.81.51,27.71,0,41.51-.08,2.28-.91,5.46-1.11,11.07-.26,7.54.35,15.16,0,22.69-.04.91-2.21.44-2.21.55h-23.8c-2.22.98-2.35,22.83-1.66,23.8.47.67,14.33.99,14.94.55,3.23-2.29-6.26-14.2,11.62-11.07l2.21.55q.55,13.56,1.11,27.12c-5.41.05-2.75,7.19-3.32,11.07h-8.85c0-.58-2.44-9.73-1.11-11.62,1.1-1.55,7.76.44,8.85-1.11,8.61-12.17-19.8-6.91-24.9-6.09.13,17.27-2.69,17.82-2.77,18.82h-8.85c-8.48,1.1-22.08-1.18-23.24-1.11v-48.15c17.25-6.98,33.9,9.68,29.89-17.71q-6.64-.55-13.28-1.11c-3.5-22.87,10.42-10.35,13.28-14.39,1.28-1.81-1.28-42.47,0-44.27,1.22-1.72,15.38.62,16.6-1.11.77-1.08-.85-24.48,1.11-26.56,4.99-5.3,16.94,12.18,14.94-20.48h23.8Z"/>
    <path class="cls-1" d="m904.85,289.91q-19.92.83-39.85,1.66v39.85c1.75,3.95,31.51.22,38.74,1.66,1.55.31,2.94-.67,4.43,1.66-1.14,13.86,2.52,37.16-2.21,41.51-7.01.04-14.02-.03-21.03,0h-19.92c0-.12-1.03.73-1.11-2.21-.37-13.82.27-27.69,0-41.51-.8-1.13-9.03-.43-11.07-.55-9.25-.55-19.43-.07-28.78,0-2.36.02-2.46-1.13-3.32-1.11v-40.95c4.06-.07,8.12.08,12.18,0,4.37-.08,27.31.67,28.78-.55,1.15-4.94,2.22-26.99-4.43-27.12-5.89-15.32,23.04-6.68,47.04-8.85,1.13,12.15.39,24.36.55,36.53Z"/>
    <path class="cls-1" d="m708.93,868.81c7.74-.2,15.5.15,23.24,0,.05,1.71,2.18.79,2.21,1.66.3,8.96-1.14,18.29,1.11,27.12.15,1.82-.58,8.05.55,8.85,27.34,4.32,11.76-12.99,16.05-22.69,1.44-3.25,9.08-.81,10.52-1.66,1.25-.74.12-3.71.55-4.43.52-.86.11-4.22,3.87-5.53.94-.33,5.23.08,8.3,0,5.73-.15,12.79,1.02,18.82,1.11,8.48.13,16.97-.09,25.46,0,.13,10.68.36,21.44-.55,32.1q-20.75.83-41.51,1.66-.28,17.43-.55,34.87h-42.06q-.28-17.43-.55-34.87-12.18-.28-24.35-.55h-19.92c-.17-7.37-1.61-14.58-1.11-22.14.35-5.21.24-10.4,1.66-15.5,6.08-.12,12.18.16,18.26,0Z"/>
    <path class="cls-1" d="m227.44,660.71c7.74-.11,15.5.08,23.24,0-.08,2.8.55,4.13-2.21,6.09-1.05,6.1,2.24,7.35,2.21,8.3-.21,8.88-.12,17.71-1.11,26.56-5.77.42-4.2,1.09-4.43,1.11-6.96.4-14.05-.2-21.03,0-2.87.08-18.02-.56-18.82.55,0,7.56,0,15.13,0,22.69,0,11.22-1.22,23.52,2.21,22.14-.25,0-4.18,2.21-4.43,2.21-.72.02-3.05-1.3-14.39-1.11-4.06.07-8.12-.07-12.18,0-7.71.12-13.3-1.12-12.18,2.21,0-.12-1.03.74-1.11-2.21-.23-8.49-1.1-16.86-1.11-25.46,0-2.58,0-5.17,0-7.75-.01-6.02.67-12.08-1.11-12.18.28-.02,4.24-.99,5.53-1.11.23,1.22-.57,3.76.55,4.43,1.03.61,11.75-.44,15.5,0,2.68-6.54-3.23-4.08-3.87-6.09-.63-1.97.27-27.6,1.11-28.78.56-.79,9.02-.83,9.41-.55,1.14.81.41,7.03.55,8.85.27,3.39-.59,19.64,0,20.48.52.74,11.15.89,11.62.55,1.45-1.03.06-17.86.55-21.03v-18.82c9.29.01,7.36-1.11,7.75-1.11,5.9,0,11.81.09,17.71,0Z"/>
    <path class="cls-1" d="m403.44,909.76q12.18.55,24.35,1.11v40.4c.79,1.12,13.05.47,15.5.55,9.57.34,19.2-.25,28.78,0,.12,14.08-.82,29.3,0,43.17h-44.83l-1.11-39.85c-15.27.51-30.68-.69-45.94,0,.98-14.44-.74-29.24,0-43.72,1.28-1.75,2.21-1.52,2.21-1.66h21.03Z"/>
    <path class="cls-1" d="m254.01,202.47c-.32,15.48.23,31,0,46.49-.17,0,1.07.93-3.32,1.11-7.72.31-15.51-.2-23.24,0-2.87.08-18.03-.56-18.82.55,1.06,12.34-.94,24.82-1.11,37.08h-36.53c.47-5.99-.78-28.68,0-30.44,1.55-3.51,11.96-.34,13.28-2.21,6.12-8.7-18.83-19.73,33.21-17.71v-34.31q18.26-.28,36.53-.55Z"/>
    <path class="cls-1" d="m801.91,203.58c-5.45.2-11.56,1.11-12.18,1.11-.45,0-.6-1.85-8.85-1.11-.13-7.69.52-15.6,0-23.24-1.34-19.84-3.28-8.99-5.53-12.73-.66-1.09.92-7.26-.55-8.3-1.6-1.14-33.9.86-39.29,0-.04-5.57-3.51-40.26.55-42.06,14.21-6.31,8.65,9.45,12.18,16.6,10.86,4.82,29.91-12.29,26.56,16.6,44.44-3.5,22.97,8.61,28.23,16.05,1.41,2,14.98-1.44,16.6,2.21v34.31c-.8,1.13-15.03.45-17.71.55Z"/>
    <path class="cls-1" d="m513.02,869.91l2.21,2.21c-.69-.06-2.13,1.3-2.21,1.66-2.73,12.33,2.63,97.04,1.11,121.2-7.28-.12-14.87.41-22.14,1.11,1.6-23.33-3.48-93.44-1.11-126.18h22.14Z"/>
    <path class="cls-1" d="m845.08,262.24c-1.88,5.64-7.15,2.66-12.18,3.32-.33-7.12-2.04-14.35-1.11-21.58-.89-1.26-7.95-.26-9.96-.55,1.16-8.79-1.08-17.91-1.11-26.56-.06-24.47,7.87-7.71,11.07-14.94,1.28-2.89-2.04-15.52,1.66-17.16,17.71-7.86,8.85,16.85,13.28,18.82q11.35.28,22.69.55v36.53l-23.8,1.66c-1.84,1.31.49,16.8-.55,19.92Z"/>
    <path class="cls-1" d="m469.85,82.93c-1.35,4.06,1.53,37.26-.55,38.74h-42.06c-4.14-1.5,4.34-27.26-12.18-19.92-3.83,1.7-.33,29.68-1.66,31.55-.51.72-12.21.92-12.73.55-2.22-1.57,1.93-25.53.55-29.89,13.09-.31,7.06-7.22,9.41-8.85,5.34-3.72,16.78,10.29,15.5-14.39,14.48,1.17,38.33-2.56,43.72,2.21Z"/>
    <path class="cls-1" d="m381.3,854.42c0,.11,2.23-.34,2.21.55-.28,17.63-.39,34.93-1.11,52.58-8.12.04-16.23-.05-24.35,0-10.88.07-21.32-1.24-19.92,2.21-2.84-.91-3.13-2.16-3.32-2.21,2.45-12.76.53-25.89,1.11-38.74.08-1.73,2.21-2.06,2.21-2.21,18.4,1.99,24.32,4.21,22.14-12.18,6.99.28,14.04-.2,21.03,0Z"/>
    <path class="cls-1" d="m955.77,516.82c4.18,1.98,12.21,1.1,17.71,1.11,8.46,0,17.18-1.13,25.46-1.11.2,0,3.12,2.21,3.32,2.21-2.05,6.2-1.05,14.37-1.11,21.03-.1,11.54,1.58,22.12-3.32,21.03-1.56-.54-15.11.1-19.92,0-7.21-.15-13.97.84-21.03,1.11-1.02.04-1.48-1.64-3.32-1.11,1.14-11.11-.59-30.2,0-43.72.4-.96,2.21-.44,2.21-.55Z"/>
    <path class="cls-1" d="m334.81,907.55c.19.06.48,1.31,3.32,2.21v32.1c-14.27.85-28.32,1.66-42.61,1.11-4.22-1.87-.35-30.6-.55-35.42,9.2.89,35.88-1.21,39.85,0Z"/>
    <path class="cls-1" d="m904.85,328.65c.82-6.68.08-26.73,0-36.53q17.16.28,34.31.55v36.53q-17.16-.28-34.31-.55Z"/>
    <path class="cls-1" d="m163.25,749.26c.08,2.95,1.1,2.09,1.11,2.21.13,4.46.68,31.24-1.11,32.65-39.48,2.19-28.42,4-29.89-34.87h29.89Z"/>
    <path class="cls-1" d="m753.21,204.68c-.1,2.25,1.56,5.08,1.11,11.07-.22,2.86,1.01,5.89-1.66,7.75h-35.42c-1.18.83-.36,8-.55,9.96h-22.14c-.77-5.8,1.08-9.51,1.11-11.07,19.11,4.33,15.64-.76,15.5-16.6,7.76.98,15.6-.84,23.24-1.11,6.25-.22,12.55.09,18.82,0Z"/>
    <path class="cls-1" d="m801.91,203.58c-4.49,18.11.8,12.56,18.82,13.28.02,8.65,2.27,17.77,1.11,26.56-.36-.05-.74.04-1.11,0-9.69-1.12-21.35-2.24-30.99-1.11v-37.63c.61,0,6.72-.9,12.18-1.11Z"/>
    <path class="cls-1" d="m273.93,186.97c-.14,2.57.15,5.18,0,7.75-.02.27-2.2,4.71-2.21,4.98-.3,7.97-2.04,44.18-1.11,47.04,1.17,3.84-6.81,1.67-16.6,2.21.23-15.49-.32-31.01,0-46.49,0-.34.99-3.64,1.11-6.64,2.88-.35,10.92.5,11.62,0,1.12-.79.43-7.05.55-8.85,6.61-.14.39,5.82,6.64,0Z"/>
    <path class="cls-1" d="m132.25,703.88c.18,4.41-.13,8.86,0,13.28.05,1.84-.05,3.69,0,5.53.24,8.47-.32,17,0,25.46-25.64,7.71-14.24-10.77-16.6-43.72,4.58-4.03,15.32-.54,16.6-.55Z"/>
    <path class="cls-1" d="m857.25,262.24c6.65.12,5.58,22.18,4.43,27.12-1.47,1.22-24.41.47-28.78.55-.28-8.09.38-16.27,0-24.35,5.03-.66,10.3,2.32,12.18-3.32,5.65,6.42,11.39-.01,12.18,0Z"/>
    <path class="cls-1" d="m188.7,763.65c4.8,0,9.59,0,14.39,0q-.28,11.07-.55,22.14c-8.66.2-17.36-.27-26.01,0,.05-7.1,1.35-13.89,1.11-21.03-.09-1.75,5.3-1.1,11.07-1.11Z"/>
    <path class="cls-1" d="m1012.22,517.93c-6.89-.78-9.46,1.11-9.96,1.11-.2,0-3.12-2.21-3.32-2.21-.41-12.88.56-25.87,0-38.74,21.3-7.46,10.79,9.98,13.28,39.85Z"/>
    <path class="cls-1" d="m116.76,629.72c.23,6.69,2.76,15.52,1.11,22.14-2.13,8.52-11.26-2.38-13.28,7.75-16.69.83-10.83.18-11.07-11.07,27.91,4.94.09-22.63,23.24-18.82Z"/>
    <path class="cls-1" d="m674.62,956.25c.19,2.92-.27,5.95,0,8.85-2.62.31-8.78-.45-9.41,0-1.28.91-.21,6.92-.55,8.85-2.92.03-2.09,1.1-2.21,1.11-.56.03-4.47-2.16-11.07-1.11-3.08,1.06-2.3-3.59-2.21-9.96.04-2.68-.57-5.33,1.11-7.75,8.11-.19,16.25.26,24.35,0Z"/>
    <path class="cls-1" d="m708.93,925.26c-.05,2.59,2.86,14.97.55,16.6-.85.6-14.65-.44-18.26,0,.24-5.84.12-11.86,0-17.71q8.85.55,17.71,1.11Z"/>
    <path class="cls-1" d="m120.08,677.32c.07,1.7.41,8.17-.55,8.85-.45.32-10.62.32-11.07,0-1.55-1.09.44-7.76-1.11-8.85-1.09-.77-12.71,1.04-13.84-.55-4.45-6.25,7.18-6.77,11.07-7.19,4.51-.49,9.29.35,13.84,0,2.59,1.8,1.54,4.84,1.66,7.75Z"/>
    <path class="cls-1" d="m975.69,405.03c-.1.71.12,1.51,0,2.21-.38,2.29.78,11.23-.55,12.18-3.68-.45-17.96.61-18.82,0-.69-.49-.95-13.27-.55-13.84,1.02-1.44,16.85-.07,19.92-.55Z"/>
    <path class="cls-1" d="m1000.04,573.27c1.06,13.55,1.51,26.82,1.11,40.4l-22.14.55c.27-13.38-2.49-27.44-1.11-40.95h22.14Z"/>
    <path class="cls-1" d="m267.29,186.97c-.12,1.81.56,8.06-.55,8.85-.71.5-8.74-.35-11.62,0,.12-3.08-3.53-18.11.55-19.92,10.27-4.56,12.17,2.75,11.62,11.07Z"/>
    <path class="cls-1" d="m690.67,958.46c13.86-6.18,11.84,15.27,8.85,16.6-13.86,6.18-11.84-15.27-8.85-16.6Z"/>
    <path class="cls-1" d="m188.7,749.26v14.39c-5.77.01-11.15-.64-11.07,1.11-.03-.86-4.04,3.49-1.11-15.5,4.06-.07,8.12.07,12.18,0Z"/>
    <path class="cls-1" d="m957.98,744.84c-.03.91,2.16,11.06,1.11,18.26-3.78,3.95-8.41.55-8.85.55l-1.11-18.82c2.94-.13,5.91.09,8.85,0Z"/>
    <path class="cls-1" d="m949.12,744.84l1.11,18.82c-.39,0-2.53,1.81-7.75,1.11.04-.91-2.17-11.23-1.11-18.26,1.81-2.59,4.84-1.53,7.75-1.66Z"/>
    <path class="cls-1" d="m91.3,641.9c-13.91,2.82-7.8-7.29-7.75-15.5,12.82-1.17,9.75,1.51,9.96,14.94.01.9-2.21.44-2.21.55Z"/>
    <path class="cls-1" d="m998.38,640.79c9.9-7.03,13.54,10.73,9.96,13.28-9.38,6.7-13.73-10.61-9.96-13.28Z"/>
    <path class="cls-1" d="m409.52,967.32c12.06-5.34,12.3,9.41,9.96,11.07-8.51,6.03-16.93-7.98-9.96-11.07Z"/>
    <path class="cls-1" d="m380.19,955.14c-.13,1.93.58,9.15-.55,9.96-.52.37-11.67.72-12.73-1.66-4.72-10.64,6.66-8,13.28-8.3Z"/>
    <path class="cls-1" d="m389.05,105.07c2.11,22.8-5.75,13.02-6.64,14.94-2.6,5.63,6.85,35.97-10.52,28.23-3.44-1.53-.68-12.46-1.66-13.84-.51-.72-12.21-.92-12.73-.55-1.47,1.04-.04,21.37-.55,24.9q-20.2.28-40.4.55-.83,16.88-1.66,33.76c-1.95,2.82-7.07,1.38-12.18,1.66-6.86.37-17.55.42-24.35,0-1.26-.08-1.46-2.26-4.43,0,.15-2.57-.14-5.18,0-7.75.31-5.53-1.1-36.63,0-38.19.53-.74,11.15-.89,11.62-.55.74.52-1.54,15.06,9.96,9.96,3.36-1.49.91-18.01,1.66-21.58,3.95-3.98,12.62-.53,13.28-.55-4.76,17.04,12.99,17.57,9.96,1.11.11,0-.36-2.14.55-2.21,2.36-.19,12.99.64,13.84-.55,3.76-5.3-10.9-17.57,17.71-13.28-4.33-26.12,12.38-20.08,13.28-18.82.84,1.19-1.1,18.19.55,19.37.43.3,9.97.21,10.52-.55,1.37-1.93-2.12-17.69,1.66-19.37,1.71-.76,11.7-.83,10.52,3.32Z"/>
    <path class="cls-1" d="m141.11,691.71c.12,1.89,1.89,5.96,1.11,12.18-3.32-.04-6.64-.02-9.96,0-.18-4.26.47-9.33,0-13.28l8.85-1.11c.1.71-.05,1.49,0,2.21Z"/>
    <path class="cls-1" d="m959.64,315.37c2.92.83,1.04,20.3-8.85,13.28-1.81-1.29-2.72-16.59,8.85-13.28Z"/>
    <path class="cls-1" d="m741.59,949.61c3.09,1.05,3.97,18.03-6.64,13.28-3.91-1.75-2.85-16.52,6.64-13.28Z"/>
    <path class="cls-1" d="m969.6,701.67c6.78-5.2,10.97,11.07,4.43,14.39-6.62,3.36-8.4-11.34-4.43-14.39Z"/>
    <path class="cls-1" d="m882.16,230.14c10.33-4.6,11.86,9.24,7.75,11.07-10.33,4.6-11.86-9.24-7.75-11.07Z"/>
    <path class="cls-1" d="m904.3,800.18c13.51-7.88,14.97,17.51,0,9.96-1.74-.88-1.13-9.31,0-9.96Z"/>
    <path class="cls-1" d="m674.62,965.1c.17,1.9,2.65,8.47.55,9.96-1.9,1.35-9.99-1.11-10.52-1.11.35-1.94-.73-7.95.55-8.85.63-.45,6.79.31,9.41,0Z"/>
    <path class="cls-1" d="m603.78,561.1c-1.41,5.86,1.04,36.63,0,48.15q-18.26,1.66-36.53,3.32c.39,11.59-.52,23.29,0,34.87h-30.99l-1.11-1.11q.55-15.22,1.11-30.44c4.83-.43,3.89-1.64,5.53-2.77,2-1.37.59-2.96,1.66-3.32h22.14c4.34-2.85-1.61-8.35-1.66-8.85-1.24-13.2,1.29-26.78,1.11-39.85,5.92.99,11.95-.85,17.71-1.11,6.35-.28,15.07-.64,21.03,1.11Z"/>
    <path class="cls-1" d="m594.93,793.54c2.21.21,11.32-.65,12.18.55,1.81,18.5-2.17,27.29-2.21,28.78-.95,29.41.78,59.12,0,88.55-8.1.13-16.31,1.24-24.35,1.66.62-9.59-1.11-73.78,1.11-76.93,1.39-1.96,13.89,1.4,15.5-2.21,1.35-3.04-1.11-12.09-1.11-12.73,0-2.5,3.38-12.64-.55-14.39-10.61-4.71-14.83,4.54-10.52,14.39-3.73.1-7.42-.11-11.07,0,2.99-7.73-1.13-7.3-1.11-7.75.03-.61,3.4-.55,2.21-11.07,8.33-.67,9.61,2.96,8.85-7.75.61.02-2.39-2.36,11.07-1.11Z"/>
    <path class="cls-1" d="m770.92,743.73c1.01,9.78,2.17,6.22,2.21,6.64.15,1.6-2.28.86-2.21,1.66.07.9,3.44-1.88,2.21,16.6q-8.58.28-17.16.55c-2.98,1.08.76,4.71-1.66,11.07-.15.39-5.34-1.93-2.77,5.53h22.69c.02,2.91,1.1,6.63,1.11,9.96q-12.73.55-25.46,1.11c-.13-2.04.58-10.26-.55-11.07-5.34-.12-10.71.17-16.05,0-9.12-.29-18.55-.28-27.67,0,.5-7.98,1.58-23.33,1.11-29.89h12.18c.11,1.91-.56,9.17.55,9.96.45.32,10.62.32,11.07,0,1.44-1.02.07-16.85.55-19.92,2.35.02,2.44-1.11,3.32-1.11,1,0-3.7,3.45,18.26,2.21.3-1.66,1.35-3.24,1.66-4.43q8.3.55,16.6,1.11Z"/>
    <path class="cls-1" d="m601.57,753.69c-.2,0-1.6,2.08-3.32,2.21-16.92,1.36-4.38-4.23-14.39-7.75-15.95-5.61-9.69,5.17-14.94,6.64-3.76,1.06-4.99-2.34-6.09-2.21q.83-9.41,1.66-18.82c3.28-1.46,32.64,4.38,23.8-8.3-1.67-2.4-11.07,4.55-8.85-10.52,2.82.14,2.09-1.1,2.21-1.11,1.57-.15,5.85.56,6.64-.55.78-1.11-1.05-13.8.55-14.94.47-.34,11.1-.19,11.62.55,1.58,2.24-2.01,46.11,1.11,54.79Z"/>
    <path class="cls-1" d="m649.16,558.88c-.23.06.03,1.21-4.43,1.66v48.7c1.28,1.75,2.21,1.52,2.21,1.66.03.74-.03,1.48,0,2.21-7.38,0-14.76,0-22.14,0v-55.34c7.98-.22,16.61,1.04,24.35-1.11v2.21Z"/>
    <path class="cls-1" d="m535.15,646.33l1.11,1.11c.07,1.47-.11,2.97,0,4.43-2.53.44-13.41-.83-14.39.55-1.39,1.96,1.06,41.83,0,48.15-8.33.48-5.17,2.2-5.53,2.21-.71.03-6.29-2.22-6.64-2.21v-38.19c-.69-1.56-18.14-2.65-21.03-2.77v-11.07c8.24-.43,16.69.59,24.9,0,.92-.07.44-2.21.55-2.21,6.98-.32,14.04.24,21.03,0Z"/>
    <path class="cls-1" d="m689.01,884.3c-.51,7.56.94,14.77,1.11,22.14.04,1.52-.03,3.06,0,4.43-12.89.34-25.86-.47-38.74,0-3.35,1.2-2.1-4.95-2.21-13.28,29.64,3.53,15.04-10.23,19.37-13.28.89-.62,16.53.46,20.48,0Z"/>
    <path class="cls-1" d="m583.86,748.16c-2.62.31-8.78-.45-9.41,0-1.15.81-.36,5.05-.55,6.64-.48,3.97,1.09,8.43-1.11,12.18-4.57.31-9.25-.22-13.84,0-1.17.83-.4,11-.55,13.28-.29,4.2-.68,8.01-1.11,12.18-18.93.9-13.62.03-14.39-16.6-.3-6.43.22-12.93,0-19.37,1.41-3.17,12.55-1.04,19.37-1.66.92-.08.44-2.2.55-2.21,1.1-.13,2.32,3.27,6.09,2.21,5.25-1.47-1.01-12.25,14.94-6.64Z"/>
    <path class="cls-1" d="m537.37,764.76c-.44,3.11.58,9.21,0,10.52-1.47,3.32-10.38.78-11.62,1.66-1.37.98,0,5.06-.55,6.09-1.83,3.37-7.28-.28-6.64,3.87-1-4.17-3.29-3.09-3.32-3.32-1.11-7.72-1.13-12.58,3.32-14.39,1.43-.58,4.3,1,5.53-1.66.57-1.22-.25-15.14,0-19.37.12-2.04-.58-10.27.55-11.07.61-.43,14.47-.11,14.94.55,1.15,1.62-1.64,23.09-2.21,27.12Z"/>
    <path class="cls-1" d="m624.81,821.21c.12.87.74,1.34,1.11,2.21-5.45,46.38,4.78,33.3,6.64,35.97,3.62,5.22-2.9,15.12-9.41,10.52-1.59-1.12.48-8.84-1.11-9.96-6.64-4.7-12.6,16.45-10.52-37.08,2.06-2.91,7.72-1.3,13.28-1.66Z"/>
    <path class="cls-1" d="m542.9,775.83c.77,16.63-4.54,17.5,14.39,16.6-.82,8.08,3.47,11.22-15.5,11.07-16.56-.13,5.5-11.43-17.71-9.96-2.22.14-5.07-.35-6.64,0,1.18-1.88,1.6-4.57,1.11-6.64-.64-4.16,4.81-.5,6.64-3.87.56-1.03-.82-5.11.55-6.09,1.24-.88,10.15,1.66,11.62-1.66.58-1.3-.44-7.41,0-10.52,6.56,2.66.52,11.38,5.53,11.07Z"/>
    <path class="cls-1" d="m541.8,698.35v-23.8q12.18-.83,24.35-1.66c.6,7.78-.49,15.98,0,23.8-1.47,3.32-16.25.91-24.35,1.66Z"/>
    <path class="cls-1" d="m629.24,775.83c-.39-4.05-.44-17.25,0-21.03.19-1.59-.59-5.83.55-6.64.61-.43,14.47-.11,14.94.55.99,1.4.99,32.91,0,34.31-.47.67-14.33.99-14.94.55-1.14-.81-.39-6.04-.55-7.75Z"/>
    <path class="cls-1" d="m663.55,783.58c-3.76,11.94.93,8.49,11.07,8.85.09,1.16,0,1.05,0,1.11-3.31.37-9.3-.54-10.52,0-2.53,1.12-1.62,6.57-1.66,8.85-.06,3.02.58,5.68-1.11,5.53-15.09-2.86-.59,14.02-13.28,14.39-2.86.08-2.09-1.11-2.21-1.11v-35.97c1.27-2.86,11.6-1.39,17.71-1.66Z"/>
    <path class="cls-1" d="m536.26,651.86c.72,9.54-1.82,8.54-2.21,11.07-.02.11-2.09-.37-2.21.55-1.23,9.18.91,26.28,0,37.08-3.28.26-6.67-.19-9.96,0,1.06-6.31-1.39-46.19,0-48.15.98-1.38,11.86-.12,14.39-.55Z"/>
    <path class="cls-1" d="m675.73,800.18c3.62.03,8.24,2.25,12.18,1.11,0,1.09,5.55,9.25.55,21.03-35.53,4.09-13.57-11.82-27.12-14.39,1.68.14,1.05-2.51,1.11-5.53,3.92-.76,9.38-2.25,13.28-2.21Z"/>
    <g>
      <path class="cls-1" d="m641.41,878.77c2.45,29.62-5.7,15.21-13.84,18.82-4.18,1.85,1.16,14.9-3.87,14.39-2.12-.26-10.19.68-11.07-.55v-32.1c.94-1.32,24.61-.22,28.78-.55Z"/>
      <path class="cls-1" d="m649.16,877.66c-.43,6.27-.09,13.54,0,19.92.12,8.33-1.13,14.48,2.21,13.28-.18,0-2.18,2.2-2.77,2.21-8.64.18-16.29-.05-24.9-1.11,5.04.52-.3-12.54,3.87-14.39,8.14-3.61,16.29,10.8,13.84-18.82.44-.04,2.55-1.8,7.75-1.11Z"/>
    </g>
    <path class="cls-1" d="m566.15,781.36c-6.5,14.7,7.61,12.9,17.71,13.28.76,10.71-.53,7.08-8.85,7.75-5.65.45-11.49-.33-17.16,0-2.42,1.07-1.66,5.62-1.66,7.75-2.57,6.58-8.52,3.99-14.39,4.43-.38-3.61.27-7.43,0-11.07,18.97.15,14.67-2.99,15.5-11.07.42-4.17.82-7.98,1.11-12.18,8.38-.66,7.36,1.07,7.75,1.11Z"/>
    <path class="cls-1" d="m621.49,954.04c-.8,4.45,1.11,5.25,1.11,5.53-.03,5.39-.34,13.56-1.11,18.82-.21,1.45.59,4.73-.55,5.53-.59.42-13.8.42-14.39,0-1.05-.75-.55-13.13-.55-15.5-.01-5.17.01-10.33,0-15.5,5.29,0,10.41.94,15.5,1.11Z"/>
    <g>
      <path class="cls-1" d="m535.15,907.55c3.33,11.4-1.18,16.24-1.11,20.48.02.9,2.21.44,2.21.55-.19,19.24,5.02,25.38-17.71,19.37v-38.74c2.21-2.93,9.45-1.32,16.6-1.66Z"/>
      <path class="cls-1" d="m565.04,913.08c.01.56-1.79,8.12-1.66,11.07-15.02,1.02-29.86-3.17-27.12,4.43,0-.11-2.2.35-2.21-.55-.08-4.24,4.43-9.08,1.11-20.48,9.16-.43,18.64,1.21,27.67-1.11.07,7.52,2.19,5.25,2.21,6.64Z"/>
    </g>
    <path class="cls-1" d="m614.85,754.8v18.82c-7.13,1.91-3.23,7.61-4.98,8.85-.47.34-11.1.19-11.62-.55-.75-1.06.56-21.98,0-26.01,1.72-.14,3.12-2.2,3.32-2.21,10.38-.5,12.62,1.1,13.28,1.11Z"/>
    <path class="cls-1" d="m649.16,964c-.08,6.37-.86,11.02,2.21,9.96-1.57.25-.66,6.62-29.89,4.43.77-5.26,1.07-13.43,1.11-18.82,6.84-1.11,5.19,4.13,6.09,4.43,2.64.87,15.01-.63,20.48,0Z"/>
    <path class="cls-1" d="m594.93,793.54c-13.46-1.26-10.46,1.13-11.07,1.11-10.1-.38-24.21,1.41-17.71-13.28,24.83,2.27,27.97-7.3,28.78,12.18Z"/>
    <path class="cls-1" d="m629.24,754.8c-.44,3.78-.39,16.98,0,21.03q-7.19-1.11-14.39-2.21v-18.82c4.42.03,9.57-2.79,14.39,0Z"/>
    <path class="cls-1" d="m650.27,956.25c-1.68,2.42-1.07,5.07-1.11,7.75-5.47-.63-17.84.87-20.48,0-.89-.29.75-5.54-6.09-4.43,0-.28-1.91-1.08-1.11-5.53,12.44.4,20.49-3.83,28.78,2.21Z"/>
    <path class="cls-1" d="m692.33,783.58v2.21c-.96.24-2.71-.55-3.32.55-.21,1.95.3,4.2,0,6.09-.21,1.31-1.11,8.41-1.11,8.85-3.94,1.14-8.55-1.07-12.18-1.11.66-4.41-1.03-5.98-1.11-6.64,0-.05.09.05,0-1.11-.16-1.95.92-5.03,0-8.85h17.71Z"/>
    <g>
      <path class="cls-1" d="m605.99,952.93c.01,5.17-.01,10.33,0,15.5-8.84-.23-17.73.31-26.56,0v-15.5c8.81-.31,17.74,0,26.56,0Z"/>
      <path class="cls-1" d="m579.43,952.93v15.5c-2.45-.09-14.7.56-15.5-.55-.43-.61-.11-14.47.55-14.94.61-.43,12.48.09,14.94,0Z"/>
    </g>
    <path class="cls-1" d="m648.06,659.61c.28,12.93-1.23,25.98-1.11,38.74-7.38-.08-14.76.11-22.14,0,1.15-4.69-.06-9.74,0-11.07.43-9.2,1.97-18.39,1.11-27.67,7.38-.02,14.76.02,22.14,0Z"/>
    <path class="cls-1" d="m560.61,856.63c.08,5.16-.13,10.34,0,15.5h-14.39c1.87-4.37,1.14-10.56,1.11-15.5h13.28Z"/>
    <path class="cls-1" d="m524.09,748.16c-.25,4.23.57,18.15,0,19.37-1.24,2.66-4.11,1.08-5.53,1.66,3.7-5.04-.82-4.37-1.11-6.09-.3-1.75-2.17-16.29-2.21-17.16-.42-8.15,1.11-9.46,1.11-9.96,9.64-1.33,2.35,10.48,7.75,12.18Z"/>
    <path class="cls-1" d="m692.33,785.79c2.04-.51,9.1.13,13.28,0-.1,1.56,1.94,5.66-.55,6.64h-16.05c.3-1.89-.21-4.13,0-6.09.61-1.1,2.36-.31,3.32-.55Z"/>
    <g>
      <path class="cls-1" d="m624.81,613.12c7.38,0,14.76,0,22.14,0,.6,15.57.77,30.93,1.11,46.49-7.38.02-14.76-.02-22.14,0-3.66.01-20.91-1.1-22.14,1.66.37,8.63-.51,17.4,0,26.01.12,2.04-.58,10.27.55,11.07,6.82.07,13.65-.1,20.48,0,7.38.11,14.76-.08,22.14,0,.09,9.39.81,19.31,1.11,28.78.21,6.81-.16,13.66,0,20.48.81,1.14,5.05.37,6.64.55,12.22,1.43,25.42-1.96,37.63,1.11.53,11.39-.39,22.91,0,34.31h-17.71c-3.68.12-7.39-.16-11.07,0-6.11.27-16.44-1.2-17.71,1.66v35.97c-6.95.09-14.11-.45-21.03,0-5.56.36-11.22-1.25-13.28,1.66-2.09,53.53,3.87,32.38,10.52,37.08,1.59,1.12-.48,8.84,1.11,9.96,6.51,4.61,13.03-5.3,9.41-10.52-1.86-2.68-12.09,10.41-6.64-35.97,2.34,5.64,14.14,8.45,18.26,5.53,1.67-1.18-1.79-4.71,3.87-6.64,12.69-.37-1.81-17.25,13.28-14.39,13.55,2.57-8.41,18.48,27.12,14.39,4.99-11.78-.55-19.94-.55-21.03,0-.45.9-7.55,1.11-8.85h16.05c2.49-.98.46-5.08.55-6.64,9.12-.28,18.55-.29,27.67,0v35.97q-19.65.28-39.29.55-.83,21.86-1.66,43.72-21.31.83-42.61,1.66c-1.13.8-.42,8.03-.55,9.96-5.2-.7-7.31,1.07-7.75,1.11-4.17.33-27.84-.77-28.78.55v32.1c.88,1.24,8.95.29,11.07.55,8.62,1.06,16.27,1.28,24.9,1.11.59-.01,2.59-2.21,2.77-2.21,12.88-.47,25.85.34,38.74,0,.09,4.2,1.02,8.84,1.11,13.28.12,5.85.24,11.87,0,17.71-.1,2.35.57,13.59-.55,14.39-5.34.12-10.71-.17-16.05,0-8.1.26-16.25-.19-24.35,0-8.28-6.04-16.34-1.81-28.78-2.21-5.09-.17-10.2-1.1-15.5-1.11-8.82,0-17.76-.31-26.56,0-2.46.09-14.33-.43-14.94,0-.67.47-.99,14.33-.55,14.94.79,1.12,13.05.47,15.5.55,8.83.31,17.73-.23,26.56,0,0,2.37-.5,14.75.55,15.5.59.42,13.8.42,14.39,0,1.14-.81.34-4.09.55-5.53,29.22,2.19,28.31-4.18,29.89-4.43,6.6-1.06,10.51,1.13,11.07,1.11,3.1,14.87-12.16,6.27-14.39,9.41-.7.98.97,9.44-.55,10.52-2.03,1.44-43.3-1.1-49.81,0-1.37-22.04-14.7-3-21.03-15.5-18.97-4.34-9.14,13.68-13.28,16.6-2.23,1.57-42.98-1-49.26-1.11,1.52-24.16-3.84-108.87-1.11-121.2.08-.36,1.52-1.72,2.21-1.66h45.38c0,.11,2.19-.35,2.21.55.29,11.23-.11,22.52,0,33.76-9.04,2.32-18.51.68-27.67,1.11-7.15.34-14.4-1.27-16.6,1.66v38.74c22.73,6.01,17.52-.13,17.71-19.37-2.74-7.6,12.09-3.41,27.12-4.43-.13-2.94,1.67-10.51,1.66-11.07,5.15-.19,10.36.27,15.5,0,8.05-.42,16.25-1.53,24.35-1.66.78-29.43-.95-59.14,0-88.55.05-1.48,4.02-10.28,2.21-28.78-.85-1.2-9.97-.35-12.18-.55-.81-19.47-3.95-9.9-28.78-12.18-.39-.04.63-1.77-7.75-1.11.16-2.29-.61-12.46.55-13.28,4.58-.22,9.26.31,13.84,0,2.59-.18,9.85,1.07,11.07-1.66,3.37-7.57-3.77-10.36-9.96-10.52.19-1.59-.59-5.83.55-6.64.63-.45,6.79.31,9.41,0,10,3.52-2.54,9.11,14.39,7.75.56,4.03-.75,24.95,0,26.01.52.74,11.15.89,11.62.55,1.75-1.24-2.15-6.94,4.98-8.85q7.19,1.11,14.39,2.21c.16,1.71-.59,6.94.55,7.75.61.43,14.47.11,14.94-.55.99-1.4.99-32.91,0-34.31-.47-.67-14.33-.99-14.94-.55-1.14.81-.37,5.05-.55,6.64-4.82-2.79-9.97.03-14.39,0-.67,0-2.91-1.61-13.28-1.11-3.12-8.68.48-52.55-1.11-54.79-.52-.74-11.15-.89-11.62-.55-1.6,1.14.23,13.84-.55,14.94-.79,1.12-5.07.41-6.64.55,4.47-21.21-16.21-22.76-12.18-1.66,10.93.17,9.41,2.74,9.96,2.77-2.22,15.07,7.18,8.12,8.85,10.52,8.84,12.68-20.52,6.85-23.8,8.3q-.83,9.41-1.66,18.82c-.11.01.37,2.13-.55,2.21-6.82.62-17.96-1.51-19.37,1.66.22,6.44-.3,12.94,0,19.37-5.02.31,1.03-8.41-5.53-11.07.57-4.03,3.36-25.5,2.21-27.12-.47-.67-14.33-.99-14.94-.55-1.13.8-.43,9.03-.55,11.07-5.39-1.69,1.89-13.5-7.75-12.18-.17-11.06.12-22.14,0-33.21.36-.01-2.8-1.74,5.53-2.21,3.3-.19,6.68.26,9.96,0,12.88-1.02,9.41-2.16,9.96-2.21,8.1-.75,22.88,1.66,24.35-1.66-.49-7.82.6-16.02,0-23.8-.15-1.94.59-9.15-.55-9.96h-31.55c.39-2.53,2.94-1.53,2.21-11.07-.11-1.46.07-2.96,0-4.43h30.99c.1,2.24-.57,12.49.55,13.28,5.72,0,11.44,0,17.16,0,2.58,0,16.97.5,17.71-.55.21-8.29-.28-16.62,0-24.9.25-7.18-.18-14.4,0-21.58.75-1.06,19.01-.55,22.14-.55Z"/>
      <path class="cls-1" d="m581.64,713.84c-.12.01.61,1.24-2.21,1.11-.55-.03.97-2.6-9.96-2.77-4.04-21.1,16.64-19.55,12.18,1.66Z"/>
      <path class="cls-1" d="m645.84,821.21c.12,0-.65,1.19,2.21,1.11-5.67,1.93-2.21,5.46-3.87,6.64-4.13,2.92-15.92.11-18.26-5.53-.36-.88-.99-1.34-1.11-2.21,6.92-.45,14.08.09,21.03,0Z"/>
      <path class="cls-1" d="m572.79,766.97c2.2-3.74.63-8.21,1.11-12.18,6.2.15,13.33,2.94,9.96,10.52-1.22,2.73-8.48,1.48-11.07,1.66Z"/>
    </g>
    <path class="cls-1" d="m674.62,783.58c.92,3.82-.16,6.91,0,8.85-10.14-.36-14.83,3.08-11.07-8.85,3.68-.16,7.39.12,11.07,0Z"/>
    <path class="cls-1" d="m912.6,610.91c2.3,15.98-1.71,34.65,0,50.92-.74,0-1.48,0-2.21,0-10.7,0-21.4.08-32.1,0-4.06-.03-8.12.04-12.18,0,2.08-17.22,1.02-34.73,1.11-52.02.08-15.68-.24-31.36,0-47.04,46.95-4.36,27.91,6.27,32.1,12.18.48.68,12.65-1.22,7.75,9.96-.81,1.85-12.46.4-7.75,11.07,2.42,5.47,14.07-6.56,11.07,14.39.19.94,2.2.44,2.21.55Z"/>
    <path class="cls-1" d="m955.77,610.91c-.29,16.97-.84,33.97-1.11,50.92,0,.37,0,.74,0,1.11-4.76-1.94-11.28-1.08-16.6-1.11-1.11,0-2.21,0-3.32,0q.55-25.46,1.11-50.92h19.92Z"/>
    <path class="cls-1" d="m866.11,661.82c-5.9-.06-11.81.13-17.71,0v-50.92c6.01-.03,13.31.85,18.82-1.11-.08,17.29.97,34.8-1.11,52.02Z"/>
    <path class="cls-1" d="m996.72,468.12c.01.38,2.07,3.39,2.21,7.19.01.39-2.23,1.83-2.21,2.21.04.91,2.21.44,2.21.55.56,12.87-.41,25.86,0,38.74-8.28-.02-17,1.11-25.46,1.11q.55-24.9,1.11-49.81c7.35-.31,14.78.23,22.14,0Z"/>
    <path class="cls-1" d="m821.83,610.91c-1.47,1.88-1.52.45-2.21,3.32q-11.62-.55-23.24-1.11v-39.29c3.69-.31,6.19-1.61,6.64-1.66.84-.1,15.99,1.37,16.6,2.77,1.04,12.57-2.38,34,2.21,35.97Z"/>
    <path class="cls-1" d="m865,436.02c.08,12.17-.06,24.35,0,36.53-9.93-.33-19.96.45-29.89,0-.57-39.44,13.2-8.72,11.07-34.31q1.11-1.11,2.21-2.21h16.6Z"/>
    <path class="cls-1" d="m865,376.25c.42,14.97-.12,30.36,0,45.38h-16.6c.38-3.27,1.02-7.89,1.11-11.07.02-.72,2.26-7.32,1.11-14.39-.07-.41-2.16-2.2-2.77-7.75-3.99.41-7.7-.78-11.62-1.11-1.35-2.39-.09-5.39,0-8.85.02-.74-.01-1.48,0-2.21,4.86.93,9.71-.78,14.39-1.11,4.37-.3,9.33.98,13.28-1.11.08,2.95,1.1,2.09,1.11,2.21Z"/>
    <path class="cls-1" d="m840.65,514.61v46.49c-1.84.16-8.03-.6-8.85.55-.82,1.15,1.58,9.08-1.66,10.52-11.06,4.9-8.89-11.89-8.3-12.73,1.09-1.55,7.76.44,8.85-1.11.29-.41.29-9.56,0-9.96-1.12-1.59-8.84.48-9.96-1.11-.29-.41-.29-9.56,0-9.96,1.23-1.73,19.25,3.48,13.28-9.96-1.52-3.44-12.46-.68-13.84-1.66-.77-.54-.86-10.09-.55-10.52.65-.91,18.22-.72,21.03-.55Z"/>
    <path class="cls-1" d="m955.77,516.82c0,.11-1.81-.4-2.21.55-.59,13.52,1.14,32.61,0,43.72-.29,2.79,1.07,5.84-1.66,7.75-11.77-1.51-17.41,5.23-14.94-7.75.03-.14,2.1-.78,2.21-1.66,1.3-10.12-.96-29.04,0-40.95-2.54-3.25-9.58-.97-15.5-1.66-.83-.1-1.23-.15-1.11-1.11,10.99-.63,22.31,1.36,33.21-1.11-.03.74.03,1.48,0,2.21Z"/>
    <path class="cls-1" d="m793.06,495.79c-.13,5.98-.2,11.78-1.11,17.71-4.97.18-9.97-.13-14.94,0q-.28,10.24-.55,20.48c-15.82.15-11.48,2.8-12.18,2.77-.48-.02-2.51-2.11-8.85-3.87q.55-11.9,1.11-23.8c6.82-.19,13.66.14,20.48,0,1.12-.8.46-12.04.55-14.39q7.75.55,15.5,1.11Z"/>
    <path class="cls-1" d="m777.56,609.8c-.56,3.56-16.89,2.94-17.71.55,2.92-9.26-.21-43.53,1.11-45.38,1.16-1.64,10.46.25,12.73-.55,1.21-.43-.42-2.69,1.66-3.32,1.79-.54.43-1.7,2.21-2.21v50.92Z"/>
    <path class="cls-1" d="m929.2,469.23c.77-6.84-1.1-9.46-1.11-9.96-.04-1.81-.03-4.83,0-6.64.01-.56,1.91-3.62,1.11-11.07,3.7-.3,22.66-3.25,24.35.55v26.56c-.88,1.24-20.69.32-24.35.55Z"/>
    <path class="cls-1" d="m853.93,536.74c3.38-.41,8.21.57,11.07,0,2.77,4.06.37,8.24,0,12.18-2.88.35-10.92-.5-11.62,0-1.33.94-.16,8.89-.55,11.07-3.82.21-8.28.76-12.18,1.11v-46.49c2.04.12,10.27-.58,11.07.55v21.03l2.21.55Z"/>
    <path class="cls-1" d="m846.19,438.23c2.13,25.6-11.64-5.13-11.07,34.31-2.24-.1-12.49.57-13.28-.55v-32.1q12.18-.83,24.35-1.66Z"/>
    <path class="cls-1" d="m936.95,561.1c0-.89-2.9-2.21-3.32-2.21-.51-14.37,3.89-19.87-11.07-15.5-.12-2.97-1.1-2.09-1.11-2.21-.19-7.54,1.53-16.72,2.21-24.35,5.91.69,12.96-1.59,15.5,1.66-.96,11.91,1.3,30.83,0,40.95-.11.88-2.19,1.52-2.21,1.66Z"/>
    <path class="cls-1" d="m905.96,376.25c.12,0-.7,1.1,2.21,1.11,1.5,21.96-2.01,64.69,0,81.35.11.92,2.19.44,2.21.55.58,2.95-3.26,6.09.55,8.85,9,.5,17.15-1.6,16.05,2.21-2.99.23-17.94-.68-18.82.55v43.17c-1.24,2.8-22.43,1.64-26.56,1.66,1.5-6.99.91-13.98,1.11-21.03,1.12-39.47,2.46-78.94,2.21-118.44,7.01-.03,14.02.04,21.03,0Z"/>
    <path class="cls-1" d="m869.43,515.71v19.37c-1.49,2.33-2.88,1.35-4.43,1.66-2.86.57-7.69-.41-11.07,0q-.55-10.24-1.11-20.48c15.77-.18,11.48-2.72,12.18-2.77,1.04-.07,4.18,2.22,4.43,2.21Z"/>
    <path class="cls-1" d="m922.56,515.71c-.12.96.28,1.01,1.11,1.11-.68,7.63-2.4,16.81-2.21,24.35-16.75,4.68-11.18-16.08-9.41-25.46,3.49-.14,7.03.2,10.52,0Z"/>
    <g>
      <path class="cls-1" d="m957.98,372.93c.17,6.15-.99,20.42.55,21.03,13.37,5.3,8.78-10.38,9.41-19.92.53,0,6.39-3.33,9.96.55-.61,8.86.82,19.02,0,27.67-.05.48-2.02,1.33-2.21,2.77-3.07.49-18.9-.88-19.92.55-.4.56-.14,13.35.55,13.84.86.61,15.14-.45,18.82,0,1.33-.94.17-9.89.55-12.18l21.03-.55c.44,20.45-.6,40.99,0,61.43-7.36.23-14.78-.31-22.14,0-6.31.27-17.54-1.21-18.82,1.66-.51,14.9.68,29.95,0,44.83-10.9,2.47-22.21.48-33.21,1.11-3.48.2-7.02-.14-10.52,0-1.77,9.38-7.34,30.13,9.41,25.46,0,.12.99-.75,1.11,2.21.21,5.33-.15,10.71,0,16.05,7.91,1.99,10.51-.55,11.07-.55.42,0,3.32,1.32,3.32,2.21-2.47,12.98,3.18,6.24,14.94,7.75,2.73-1.91,1.37-4.96,1.66-7.75,1.84-.53,2.3,1.15,3.32,1.11.98,16.24-.83,32.52-1.11,48.7h-43.17c-.02-.11-2.02.39-2.21-.55,3-20.95-8.65-8.92-11.07-14.39-4.71-10.67,6.94-9.22,7.75-11.07,4.9-11.18-7.27-9.28-7.75-9.96-4.19-5.9,14.85-16.53-32.1-12.18-.24,15.68.08,31.36,0,47.04-5.51,1.96-12.8,1.08-18.82,1.11-8.85.04-17.71-.03-26.56,0-4.6-1.97-1.17-23.41-2.21-35.97-.62-1.4-15.77-2.86-16.6-2.77-.98-2.03,1.14-12.96.55-13.28-1.14-.63-24.76-.36-26.01,0-1.79.52-.42,1.67-2.21,2.21,1.89-19.16-14.81,4.11-11.07-24.35.69.04-3.64-2.61,12.18-2.77q.28-10.24.55-20.48c4.97-.13,9.97.18,14.94,0,3.58-.13,24.64.61,25.46-.55.82-37.03-1.1-74.22,0-111.24.14-4.56-.5-10.27,0-14.39,6.21.38,12.63-.52,18.82,0,3.92.33,7.64,1.51,11.62,1.11.6,5.55,2.7,7.34,2.77,7.75-12.41-5.11-13.04,18.44-1.11,14.39-.08,3.18-.73,7.8-1.11,11.07-.52,4.51.38,9.77,0,14.39q-1.11,1.11-2.21,2.21-12.18.83-24.35,1.66v32.1c.8,1.12,11.04.45,13.28.55,9.92.45,19.95-.33,29.89,0v40.95c-.69.04,3.6,2.59-12.18,2.77q.55,10.24,1.11,20.48l-2.21-.55v-21.03c-.8-1.13-9.03-.43-11.07-.55-2.81-.17-20.38-.36-21.03.55-.3.43-.21,9.97.55,10.52,1.38.98,12.31-1.78,13.84,1.66,5.96,13.44-12.05,8.23-13.28,9.96-.29.41-.29,9.56,0,9.96,1.12,1.59,8.84-.48,9.96,1.11.29.41.29,9.56,0,9.96-1.09,1.55-7.76-.44-8.85,1.11-.59.84-2.76,17.63,8.3,12.73,3.24-1.44.84-9.37,1.66-10.52.82-1.15,7.02-.39,8.85-.55,3.9-.35,8.35-.9,12.18-1.11.58-.03,3.71,1.94,11.62,1.11,1.2-.85.35-9.97.55-12.18.37-3.93,2.77-8.12,0-12.18,1.55-.31,2.94.66,4.43-1.66v-19.37c4.09-.05,8.1.02,12.18,0,4.13-.02,25.32,1.14,26.56-1.66v-43.17c.88-1.24,15.82-.32,18.82-.55,1.06-.08,1.16-1.04,2.21-1.11,3.66-.24,23.47.69,24.35-.55v-26.56c-1.69-3.81-20.65-.86-24.35-.55-2.55.21-14.63-.66-15.5.55-1.89,2.64-2.93,13.94,14.39,10.52-.03,1.81-.04,4.83,0,6.64h-17.71c-.02-.11-2.1.37-2.21-.55-2.01-16.67,1.5-59.39,0-81.35,5.95.01,12.53.95,14.39-1.66q.83-16.88,1.66-33.76h32.1c2.9,1.29,1.53,26.23,1.66,30.99Z"/>
      <path class="cls-1" d="m929.2,420.52c.86,2.07.9,10.53,1.66,11.07.86.61,20.17.61,21.03,0,1.77-1.25-.99-8.36,1.66-9.96.3.54.76,11.1-1.66,12.18-1.67.74-34.86.74-36.53,0-2.7-1.2-1.87-12.74-1.11-13.28.61-.43,12.48.09,14.94,0Z"/>
      <path class="cls-1" d="m953.55,421.63c-2.65,1.6.11,8.71-1.66,9.96-.86.61-20.17.61-21.03,0-.76-.53-.8-9-1.66-11.07,3.49-.12,23.33-.74,24.35,1.11Z"/>
    </g>
    <path class="cls-1" d="m865,421.63c.04,4.8-.03,9.59,0,14.39h-16.6c.38-4.62-.52-9.88,0-14.39h16.6Z"/>
    <path class="cls-1" d="m928.09,459.26c0,.5,1.88,3.13,1.11,9.96-1.05.07-1.15,1.02-2.21,1.11,1.1-3.82-7.04-1.71-16.05-2.21-3.82-2.76.03-5.9-.55-8.85h17.71Z"/>
    <path class="cls-1" d="m929.2,441.55c.81,7.45-1.1,10.51-1.11,11.07-17.32,3.42-16.28-7.87-14.39-10.52.87-1.21,12.95-.34,15.5-.55Z"/>
    <path class="cls-1" d="m865,548.92c-.21,2.21.65,11.32-.55,12.18-7.91.84-11.04-1.14-11.62-1.11.39-2.18-.78-10.12.55-11.07.71-.5,8.74.35,11.62,0Z"/>
    <path class="cls-1" d="m836.22,387.32c-6.19-.52-12.6.38-18.82,0,1.33-10.95,1.15-5.43,18.82-8.85-.09,3.47-1.35,6.46,0,8.85Z"/>
    <path class="cls-1" d="m278.36,247.85c.11.01-.36,2.14.55,2.21,10.01.76,13.14-1.14,13.84-1.11.23,0-1.31.87,4.43,1.11q-.55,19.09-1.11,38.19l18.26.55c.38,16.23,15,5.18,27.12,9.96.83,10.57-.61,21.49,0,32.1-10.62,1.17-20.44.73-30.99,1.11-2.45.09-14.7-.56-15.5.55-.11,6.45.15,12.92,0,19.37-.07,3.15-.44,22.54.55,23.24q20.75.55,41.51,1.11c.1,14.03-1.12,28.15-1.11,42.06-7.38.04-14.76-.05-22.14,0-8.62.06-18.48-1.11-21.03,1.66-.15,6.45.21,12.93,0,19.37-.3,9.2.13,18.46,0,27.67,0,.37,0,.74,0,1.11-12-1.36-38.2-2.9-42.06,1.11,0-.16-2.21-2.06-2.21-2.21-.73-16.53.34-33.25,0-49.81,0-.12,1.16.66,1.11-2.21,6.73,1.12,24,4.78,21.03-5.53,3.48,2.62-6.18,13.08,20.48,7.75,1.04-1.32.69-19.76.55-23.24-.24-6.17,1.19-17.55-1.66-18.82-6.82-.05-13.65.07-20.48,0-7.14-.07-15.37.92-22.14-1.11.03-14.06.93-28.07,1.11-42.06q22.14-.83,44.27-1.66l-1.66-41.51h-40.4c.25-6.99-.18-14.03,0-21.03v-17.71c4.39-.18,3.15-1.1,3.32-1.11,9.8-.54,17.77,1.62,16.6-2.21,2.45,7.56,7.24,1.05,7.75,1.11Z"/>
    <path class="cls-1" d="m249.58,572.16c.22,4.72-.43,8.32,0,13.28.24,2.73-.71,7.97.55,9.96h16.6c2.02,10.58,3.86,9.37,3.87,9.96.02,1.01-3.31.32-2.21,7.75-5.5-.01-11.12.29-16.6,0-.11-4.98.08-9.96,0-14.94q-5.81.83-11.62,1.66c-1.94,17.16-1.31,12.61,11.62,13.28.32,15.03.38,30.36,0,45.38-.07,2.95-1.1,2.09-1.11,2.21-7.75.08-15.5-.11-23.24,0l1.11-149.43c3.01,0,20.25-.5,21.03.55-2.52,20.11-.92,40.21,0,60.32Z"/>
    <path class="cls-1" d="m335.92,511.29c-.24,17.33.32,34.69,0,52.02-.07,3.96.81,27.07,0,28.23-1.12,1.59-8.84-.48-9.96,1.11-.29.41-.29,9.55,0,9.96,1.32,1.88,11.73-1.3,13.28,2.21,2.3,5.19-2.9,46.72,0,57-.74-.02-1.48.02-2.21,0-7.74-.19-15.35-1.26-23.24-1.11q-.55-74.71-1.11-149.43c7.72-.31,15.51.23,23.24,0Z"/>
    <path class="cls-1" d="m248.48,417.2c.34,16.56-.73,33.28,0,49.81h-42.61q-.28,21.86-.55,43.72l-25.46.55q.55-22.69,1.11-45.38c3.91-.03,23.11,1.13,24.35-1.66-.11-7.93.15-15.87,0-23.8q11.07-.28,22.14-.55v-22.69c7.01,0,14.02,0,21.03,0Z"/>
    <path class="cls-1" d="m355.84,511.29c8.12.04,16.23,0,24.35,0,.37,0,.74,0,1.11,0,0,10.7-.01,21.4,0,32.1-11.52,6.59-13.22-6.34-12.18,19.92-11.07-.03-22.14.02-33.21,0,.32-17.33-.24-34.69,0-52.02l1.11-1.11c5.51,1.96,12.8,1.08,18.82,1.11Z"/>
    <path class="cls-1" d="m125.61,563.31c-.03,1.48,1.07,4.14,1.11,6.64-20.14-3.12-11.61,6.75-13.28,33.76,14.43,10.32-5.76,7.77-12.18,8.3-.22-8.29.3-16.62,0-24.9-.03-.91-2.21-.44-2.21-.55-.1-7.72,1.91-16.47,1.66-24.35q12.45.55,24.9,1.11Z"/>
    <path class="cls-1" d="m126.72,569.95c-.03-2.5-1.13-5.16-1.11-6.64.48-26.55-.71-35.28,11.07-30.44-4.42,9.66,2.15,71.14,0,74.16-.65.91-9.32.91-9.96,0-1.07-1.51.07-32.06,0-37.08Z"/>
    <path class="cls-1" d="m141.11,689.49l-8.85,1.11c-.08-.66-3.31,1.01-2.21-12.18.47,0,2.91-1.87,9.41-1.11,3.02,1.34,1.09,8.09,1.66,12.18Z"/>
    <path class="cls-1" d="m156.61,522.36c-1.2,12.34-.26,33.32-1.66,34.31-.56.4-13.35.14-13.84-.55-.69-.97.14-15.68-1.11-23.8,10.76.14,17.77,1.04,13.28-9.96h3.32Z"/>
    <path class="cls-1" d="m206.41,576.59c.08,17.01-.05,33.94,0,50.92h-47.6c-.01-5.64-1.1-4.2-1.11-4.43-.03-2.73-1.21-11.57-1.11-12.18.2-1.24,2.13-3.69,2.77-5.53l28.23-.55c-1.18-9.33,1.1-19.03,1.11-28.23h17.71Z"/>
    <path class="cls-1" d="m153.28,522.36c4.49,11-2.53,10.11-13.28,9.96-.02-.11-2.01.39-2.21-.55-2.15-9.75,2.3-10.49,11.07-10.52.23,0-.65,1.68,4.43,1.11Z"/>
    <path class="cls-1" d="m100.15,484.72q1.11,8.85,2.21,17.71c-2.85.07-5.83,1.23-8.85,0,.16-2.9-.5-16.46,0-17.16.98-1.39,5.75.01,6.64-.55Z"/>
    <g>
      <path class="cls-1" d="m285,557.78c4.37,9.17-7.99,28.39,9.96,22.14.05,11.44,0,22.88,0,34.31-8.57-2.01-17.84-1.09-26.56-1.11-1.1-7.43,2.24-6.74,2.21-7.75,7.51,2.67,8.03-7.34,6.64-10.52-1.99-4.55-9.01,10.23-6.64-36.53q7.19-.28,14.39-.55Z"/>
      <path class="cls-1" d="m293.86,557.78c.03,7.18,1.07,14.78,1.11,22.14-17.95,6.25-5.59-12.97-9.96-22.14h8.85Z"/>
      <path class="cls-1" d="m249.58,585.45c-.43-4.96.22-8.56,0-13.28,11.99-2.65,13.48,4.91,11.07,8.3-1.51,2.13-12.57-2.5-11.07,4.98Z"/>
    </g>
    <g>
      <path class="cls-1" d="m248.48,467.01c0,.16,2.21,2.06,2.21,2.21.68,13.4-.51,26.98,0,40.4q20.2.83,40.4,1.66c2.88-1.28,1.58-37.47,1.66-43.17,0-.37,0-.74,0-1.11h44.27c-.12,14.39.09,28.78,0,43.17l-1.11,1.11c-7.73.23-15.52-.31-23.24,0-6.24.25-17.55-1.2-18.82,1.66.05,14.94-.06,29.89,0,44.83h-8.85q-7.19.28-14.39.55c-2.36,46.76,4.66,31.97,6.64,36.53,1.39,3.18.87,13.19-6.64,10.52-.01-.59-1.86.62-3.87-9.96h-16.6c-1.27-1.99-.31-7.23-.55-9.96-1.5-7.48,9.56-2.85,11.07-4.98,2.41-3.39.92-10.95-11.07-8.3-.92-20.12-2.52-40.22,0-60.32-.78-1.06-18.02-.55-21.03-.55-3.12,0-21.39-.5-22.14.55.07,15.68-.1,31.36,0,47.04-6.27.03-12.55-.05-18.82,0-5.72.04-11.44-.03-17.16,0-2.49.91.85,27.34-.55,29.33-2.57,3.66-14.49-7.91-12.73,14.94-25.45-2.89-25.9,10.51-.55,7.75-.1.6,1.08,9.45,1.11,12.18h-25.46c-4.79-.11-9.6.16-14.39,0-3.16-.1-19.64.59-20.48,0-.76-.54-.84-11.1-.55-11.62.57-1.02.95.84,4.43.55,6.42-.53,26.61,2.02,12.18-8.3,1.67-27.01-6.85-36.88,13.28-33.76.07,5.02-1.07,35.57,0,37.08.65.91,9.32.91,9.96,0,2.15-3.02-4.42-64.5,0-74.16-11.78-4.84-10.59,3.89-11.07,30.44q-12.45-.55-24.9-1.11c.25,7.88-1.76,16.63-1.66,24.35-5.91.76-6.3-1.11-6.64-1.11.78-6.86-1.11-9.46-1.11-9.96.03-16.39.63-33.39,1.11-49.81.22-7.72.69-15.53,1.11-23.24,3.03,1.23,6,.07,8.85,0,4.05-.1,8.12.07,12.18,0-.06.53,2.46,7.48,1.11,10.52-1.58,3.54-12.44.55-14.94,1.66-2.31,1.02-2.14,7.02-1.11,7.75,1.45,1.02,33.8.72,35.42,0,4.02-1.78-1-12.82,3.87-12.18,7.27,2.52,11.46-6.2,9.96,11.07-8.77.02-13.22.76-11.07,10.52.21.95,2.2.44,2.21.55,1.25,8.12.42,22.83,1.11,23.8.49.69,13.27.95,13.84.55,1.4-.99.46-21.97,1.66-34.31.35-3.61.82-7.5,1.11-11.07h22.14l25.46-.55q.28-21.86.55-43.72h42.61Z"/>
      <path class="cls-1" d="m100.71,531.21c.56-.4,13.35-.14,13.84.55.69.97-.69,23.11-1.66,23.8-.52.37-12.22.16-12.73-.55-.69-.97-.42-23.11.55-23.8Z"/>
      <path class="cls-1" d="m144.98,572.16c12.23-6.02,14.08,13.36,11.07,15.5-.47.34-11.1.19-11.62-.55-.43-.61-1.4-13.98.55-14.94Z"/>
      <path class="cls-1" d="m151.62,558.88c6.02-4.52,6.6,10.93,3.32,12.18-6.14,2.34-3.94-11.71-3.32-12.18Z"/>
    </g>
    <path class="cls-1" d="m602.67,158.2c.16,14.2-.22,28.42,0,42.61.01.9,2.21.44,2.21.55.03,1.67-2.23.82-2.21,1.66.55,24.48-6.1,33.41,18.82,26.56v-28.23q12.73-.55,25.46-1.11c0,18.2-.49,36.05-1.11,54.24-4.9-1.99-13.02-1.1-18.82-1.11-7.93,0-15.87,0-23.8,0-1.15.81-.44,18.9-.55,22.14-.09,2.45.56,14.7-.55,15.5-9.85.56-19.37-1.7-18.26,2.21-.01-.25-1.75-3.74-3.32-3.87q-.55-65.58-1.11-131.16c7.72.31,15.51-.12,23.24,0Z"/>
    <path class="cls-1" d="m473.17,158.2c-.02,12.08-2.55,30.44-2.21,43.72-1.42,1.22-20.39.45-24.35.55-6.61.18-13.31.09-19.92,0-.74,0-1.48.01-2.21,0v-43.17c9.2-.23,40.02.3,45.94-1.11.82-.2.56-1.47.55-2.21,0,.16,2.22.56,2.21,2.21Z"/>
    <path class="cls-1" d="m604.89,157.09c5.72.07,11.77,1.1,17.71,1.11,8.12,0,16.23,0,24.35,0,.23,14.01,0,28.05,0,42.06q-12.73.55-25.46,1.11h-16.6c0-.11-2.2.35-2.21-.55-.22-14.2.16-28.41,0-42.61.12,0-.67-1.14,2.21-1.11Z"/>
    <path class="cls-1" d="m646.95,158.2c-8.12,0-16.23,0-24.35,0q.55-16.05,1.11-32.1c3.53-.13,22.07-.99,23.24,1.66.12,10.14-.16,20.3,0,30.44Z"/>
    <g>
      <path class="cls-1" d="m565.04,82.93c.53,4.35-.74,15.5,0,17.16.86,1.94,16.54,9.79,12.18-17.16,5.27,0,11.06-1.14,16.6-1.11.49,3.07-.88,18.9.55,19.92.43.3,9.97.21,10.52-.55.59-.83-.43-13.66,0-17.16.11,0-.34-2.22.55-2.21,14.76.14,29.52-.1,44.27,0,1.11.79.48,16.95.55,19.92.14,5.51-1.2,23.08,1.66,24.35,16.14,7.17,11.05-13.54,11.62-23.24,15.94-.08,32.13-2.23,48.15-1.11q.83,11.35,1.66,22.69c-1.55,2.32-3.31,1.48-3.32,1.66q-10.52.28-21.03.55c.7,10.6-.48,21-1.11,31.55h-21.03c-6.64,0-13.28,0-19.92,0-.16-10.14.12-20.3,0-30.44-1.18-2.65-19.72-1.79-23.24-1.66-6.17.24-17.55-1.19-18.82,1.66v29.33c-2.89-.04-2.09,1.11-2.21,1.11-7.73-.12-15.53.31-23.24,0-5.7-.23-11.45.17-17.16,0-7.16-15.56,11.22-37.28-17.16-29.89-24.59-1.51-14.15-.15-17.16,28.78-6.41.33-12.98-.46-19.37,0-4.88.35-9.42.97-14.39,1.11-7,.19-14.03-.14-21.03,0,0-1.66-2.21-2.06-2.21-2.21,0-4.52-.77-30.06,1.11-31.55,5.45-1.19,11.1-.3,16.6-.55,7.26-.33,21.93,1.31,23.24-1.66-.85-8.72,1.16-35.81,0-39.29,17.64-3.17,35.51-.06,53.13,0Z"/>
      <path class="cls-1" d="m563.38,115.03c12.81-5.67,11.88,10.81,9.96,12.18-8.89,6.34-16.61-9.23-9.96-12.18Z"/>
    </g>
    <g>
      <path class="cls-1" d="m255.12,868.81c12.54-.19,25.1.23,37.63,0,.04,6.27-.06,12.55,0,18.82.05,5.53-.13,11.08,0,16.6-3.83,4.71-26.84,1.09-40.4,2.21q-.28-18.82-.55-37.63c1.11-.01,2.21.02,3.32,0Z"/>
      <path class="cls-1" d="m291.64,843.35c.45,11.84-1.68,25.36,2.21,24.35-.08,0,.34,1.08-1.11,1.11-12.54.23-25.1-.19-37.63,0,.2-7-.28-14.04,0-21.03.12-2.97,1.1-2.09,1.11-2.21,14.39,10.13,5.82-11.2,10.52-13.28.56-.25,11.68-.35,12.18,0,3.48,2.46-7.11,14.02,12.73,11.07Z"/>
    </g>
    <path class="cls-1" d="m291.64,843.35c-19.84,2.95-9.25-8.6-12.73-11.07-.5-.35-11.62-.25-12.18,0-4.69,2.08,3.87,23.41-10.52,13.28.16-3.38-.63-22.41.55-23.24h33.21c2.89,1.28,1.41,14.5,1.66,21.03Z"/>
    <path class="cls-1" d="m335.92,748.16c-6.2-.85-12.55-1.12-18.82-1.11v-23.8c26.01-2.61,17.47-1.42,18.82,24.9Z"/>
    <path class="cls-1" d="m360.27,854.42c2.19,16.39-3.74,14.17-22.14,12.18.17-4.41-.19-8.87,0-13.28,7.4-.97,14.86.82,22.14,1.11Z"/>
    <path class="cls-1" d="m312.67,797.97c4.18.77,4.23-.84,5.53,4.43,1.47,5.93-1.92,13.91,1.11,19.92-4.76-.01-9.64.26-14.39,0,3.06-7.17-.03-17.88,0-18.82,0-.3,2.64-4.07,2.21-5.53,1.79.17,3.94-.29,5.53,0Z"/>
    <path class="cls-1" d="m330.38,784.68c-.07.83,1.11,12.01,1.11,16.6q-6.64.55-13.28,1.11c-1.3-5.27-1.36-3.65-5.53-4.43,2.27-5.51,2.68-7.36,1.11-13.28h16.6Z"/>
    <path class="cls-1" d="m331.49,801.29c0,3.32,0,6.64,0,9.96v11.07c-4.06.03-8.12.01-12.18,0-3.02-6.02.36-14-1.11-19.92q6.64-.55,13.28-1.11Z"/>
    <path class="cls-1" d="m313.78,784.68c1.58,5.93,1.17,7.77-1.11,13.28-1.59-.29-3.75.17-5.53,0-2.62-.25-12.1.45-12.73,0-.72-.51-.92-12.21-.55-12.73,1.02-1.44,16.85-.07,19.92-.55Z"/>
    <path class="cls-1" d="m203.09,750.37v13.28c-4.8,0-9.59,0-14.39,0v-14.39c11.34-.19,13.67,1.12,14.39,1.11Z"/>
    <path class="cls-1" d="m343.67,765.87c0,.12,1.36-.54,1.11,2.21-1.04,11.23,1.24,17.93-12.18,13.28,1.57-12.37-3.08-17.27,11.07-15.5Z"/>
    <g>
      <path class="cls-1" d="m362.48,780.26c.16,1.04-1.92,1.68-.55,2.21q10.79.83,21.58,1.66c1.24,12.28-1.18,24.92-1.11,37.08-8.12.06-16.24-.08-24.35,0-4.06.04-8.12-.09-12.18,0-2.35-3.19-.1-8.87-1.66-9.96-.71-.5-9.37.35-12.73,0,0-3.32,0-6.64,0-9.96,0-4.6-1.17-15.77-1.11-16.6.14-1.75,1.77.18,2.21-3.32,13.42,4.65,11.13-2.05,12.18-13.28,7.31-.88,15.22,2.06,15.5-1.11.01.11,2.1-.37,2.21.55.48,3.9-.58,9.03,0,12.73Z"/>
      <path class="cls-1" d="m345.88,821.21c-6.64.15-7.36,1.1-7.75,1.11-2.21.04-4.43-.02-6.64,0v-11.07c3.36.35,12.02-.5,12.73,0,1.56,1.1-.69,6.77,1.66,9.96Z"/>
    </g>
    <path class="cls-1" d="m910.38,661.82c.34,4.58,1.2,9.86,1.11,14.39-.14,6.57-1.15,13.18-1.11,19.92-11.02-.44-22.2.6-33.21,0,3.21-6.46-.1-13.56,0-19.92.01-.79,3.33-5.55,1.11-14.39,10.7.08,21.4,0,32.1,0Z"/>
    <path class="cls-1" d="m928.09,697.24c.41,12.7-.3,25.48,0,38.19-23.68,7.56-17.44-1.78-17.71-39.29-.05-6.74.97-13.36,1.11-19.92q8.3.83,16.6,1.66c.15,6.45-.21,12.93,0,19.37Z"/>
    <path class="cls-1" d="m848.4,661.82c5.9.13,11.81-.06,17.71,0,4.06.04,8.12-.03,12.18,0,2.22,8.84-1.09,13.6-1.11,14.39-13.01-2.1-11.01,2.92-8.85,19.92-.61-.21-1.68.46-2.21-.55-3.01-5.72,11.17-13.24-28.78-7.19-.32-5.5.23-11.09,0-16.6v-9.96c3.68.15,7.39-.08,11.07,0Z"/>
    <path class="cls-1" d="m912.6,661.82c7.38,0,14.76-.03,22.14,0,1.11,0,2.21,0,3.32,0,0,5.53,0,11.07,0,16.6,0,6.27,0,12.54,0,18.82h-9.96c-.21-6.44.15-12.92,0-19.37q-8.3-.83-16.6-1.66c.09-4.53-.77-9.81-1.11-14.39.74,0,1.48,0,2.21,0Z"/>
    <path class="cls-1" d="m938.06,697.24c0-6.27,0-12.54,0-18.82,8.76-.49,16.59,1.58,15.5-2.21.01,1.01,2.64,3.89,3.32,19.37l-18.82,1.66Z"/>
    <g>
      <path class="cls-1" d="m957.98,661.82c-4.75,35.81,20.87,1.13,16.6,31.55-1.6,3.61-14.11.25-15.5,2.21-1.42,2.01-.86,42.39-1.11,49.26-2.94.09-5.91-.13-8.85,0-2.9.13-5.94-.93-7.75,1.66-1.06,7.03,1.14,17.35,1.11,18.26-.27,6.84-1.63,14.1-1.66,21.03q-22.41.28-44.83.55v42.06q-13.84,1.11-27.67,2.21-.28,20.2-.55,40.4h-47.04c0-.11-2.21.35-2.21-.55-.09-13.89.99-27.71,1.11-41.51h19.92l25.46-1.66q.55-62.54,1.11-125.08-14.11-1.38-28.23-2.77c-1.13-.8-.43-9.03-.55-11.07,39.95-6.05,25.77,1.47,28.78,7.19.53,1.01,1.6.34,2.21.55,1.15.41,5.86-.16,8.85,0,11,.6,22.18-.44,33.21,0,.27,37.51-5.97,46.85,17.71,39.29-.3-12.71.41-25.48,0-38.19h9.96l18.82-1.66c-.68-15.48-3.31-18.36-3.32-19.37-.06-5.2,1.05-8.69,1.11-13.28,0-.37,0-.74,0-1.11,1.11-.02,2.22.04,3.32,0Z"/>
      <path class="cls-1" d="m887.14,745.94v38.19c-23.37,8.64-13.58-7.44-15.5-37.63.79-1.12,13.05-.47,15.5-.55Z"/>
      <path class="cls-1" d="m887.14,761.44v-15.5c2.79-.1,19.64-.59,20.48,0,1.43,1.01,8.28,21.15-20.48,15.5Z"/>
    </g>
    <path class="cls-1" d="m954.66,662.93c-.06,4.59-1.17,8.08-1.11,13.28,1.09,3.79-6.73,1.73-15.5,2.21,0-5.53,0-11.07,0-16.6,5.33.03,11.84-.83,16.6,1.11Z"/>
    <path class="cls-1" d="m877.18,676.21c-.1,6.36,3.21,13.46,0,19.92-2.99-.16-7.7.41-8.85,0-2.15-17-4.15-22.02,8.85-19.92Z"/>
    <path class="cls-1" d="m355.84,185.87c.65,4.4,2.11,17.35,9.41,12.18,1.65-1.17-.54-11.01,1.11-12.18,1.02-.72,21.04.3,24.9,0,.46,2.75-.86,15.6.55,16.6,1.33.94,28.16-.07,32.65,0,.74.01,1.48,0,2.21,0v36.53c-.36,1.02.79,2.92-1.66,4.43-7.56.14-15.14-.19-22.69,0-7.31.18-14.83.24-22.14,0v-40.4q3.87-.55,7.75-1.11c-35.73-4.91-19.21,8.38-23.8,11.62-.45.32-10.62.32-11.07,0-1.64-1.16.27-13.57-.55-14.94-2.15-3.57-3.84,6.48-5.53-11.07-.08-.83-7.44-1.95,8.85-1.66Z"/>
    <path class="cls-1" d="m278.36,194.72c-5.44,14.69,11.11,6.84,23.24,8.85-.15,2.28.6,12.46-.55,13.28q-11.35.28-22.69.55v30.44c-.51-.06-5.3,6.45-7.75-1.11-.93-2.87.81-39.07,1.11-47.04.01-.27,2.2-4.71,2.21-4.98,2.96-2.26,3.17-.08,4.43,0Z"/>
    <path class="cls-1" d="m329.28,211.32h8.85v8.85c-.83.02-.92,1-3.32,1.11-1.7.08-6.11,1.91-12.73,1.11-1.25.89-.24,5.99-.55,7.75-3.73.72-13.4-2.53-16.05-1.11-2.81,1.51-.52,9.39-.55,9.96-.23,3.6-1.03,7.46,0,11.07-2.56-.18-5.18.11-7.75,0-5.74-.24-4.2-1.1-4.43-1.11v-21.58c43.18,3.28,4.28-19.65,36.53-16.05Z"/>
    <path class="cls-1" d="m302.71,194.72c.43,2.91-.93,6.06-1.11,8.85-12.13-2.01-28.69,5.83-23.24-8.85,6.8.42,17.5.37,24.35,0Z"/>
    <path class="cls-1" d="m340.35,175.91c-.43,6.79,3.14,19.47-3.32,21.03-2.06.5-4.77.07-6.64-1.11.24-6.07-.18-12.19,0-18.26,2.07-2.95,6.29-1.2,9.96-1.66Z"/>
    <path class="cls-1" d="m380.75,157.09v11.07c-3.02-.48-18.35.88-19.37-.55-.27-.38-.24-8.85.55-9.41,1.92-1.36,15.56,1.82,18.82-1.11Z"/>
    <path class="cls-1" d="m337.02,196.94q.55,7.19,1.11,14.39h-8.85c-.52-5.24.9-10.31,1.11-15.5,1.88,1.18,4.58,1.61,6.64,1.11Z"/>
    <path class="cls-1" d="m355.84,182.55c-.4-2.14,1.83-2.95,1.11-3.87-5.33-6.82-13.6,13.5-8.85-9.41,13.79-2.39,9.42,3.23,9.96,14.94l-2.21-1.66Z"/>
    <path class="cls-1" d="m207.52,313.16c-.1,7.37.14,14.64,0,22.14-14.12-.43-27.96.08-42.06,1.11-.37.03-.74-.03-1.11,0,.4-8.07-.54-16.31,0-24.35q21.58.55,43.17,1.11Z"/>
    <path class="cls-1" d="m159.93,392.85c1.83,7.35-1.75,66.37,0,71.39.3.85,1.44.56,2.21.55-.12,0,.68,1.13-2.21,1.11-1.36-.01-7.33-1.97-15.5-1.11.57-3.88-2.09-11.02,3.32-11.07,17.79,6.82,9.11-13.54,11.07-28.23-.52-.73-11.73-.91-13.28-.55-.64-2.15-2.25-11.56-2.21-12.18,0-.11,2.17.36,2.21-.55.35-7.53-.26-15.15,0-22.69,12.66.52,13.03-2.14,14.39,3.32Z"/>
    <path class="cls-1" d="m147.75,453.73q-.55-13.56-1.11-27.12l-2.21-.55c-.12-1.12.43-.95,1.11-1.11,1.55-.35,12.76-.18,13.28.55-1.95,14.69,6.72,35.04-11.07,28.23Z"/>
    <path class="cls-1" d="m164.35,392.85h-4.43c-1.36-5.46-1.73-2.81-14.39-3.32.19-5.61,1.02-8.79,1.11-11.07,3.44.41,15.24-.57,16.05,0,1.77,1.25-.95,9.9,1.66,14.39Z"/>
    <path class="cls-1" d="m863.9,374.03c-3.95,2.09-8.91.8-13.28,1.11,3.39-20.71-12.44-4.17-13.28-15.5,2.64-2.65,7.13.83,6.64-3.32,1.74-.25,6.89.65,7.75-.55.11-4.24-.15-8.5,0-12.73.13-3.8.15-7.35,1.11-11.07,2.04.12,10.27-.58,11.07.55.27,13.82-.37,27.69,0,41.51Z"/>
    <path class="cls-1" d="m832.9,265.56c.38,8.08-.28,16.26,0,24.35-4.06.08-8.12-.07-12.18,0v-46.49c.36.04.75-.05,1.11,0,2.01.3,9.07-.7,9.96.55-.93,7.24.77,14.47,1.11,21.58Z"/>
    <path class="cls-1" d="m852.83,331.97c-.95,3.72-.97,7.27-1.11,11.07-6.37.03-12.4,1.46-18.82,1.11-11.02-.6-11.91,1.97-8.85-12.18,9.35-.07,19.53-.55,28.78,0Z"/>
    <path class="cls-1" d="m775.35,826.74c.01,7.01-.01,14.02,0,21.03-16.28-4.53-16.67,8.82-15.5,22.14q-12.18.28-24.35.55c.53,8.96-.72,18.19,0,27.12-2.24-8.82-.81-18.15-1.11-27.12-.03-.87-2.17.05-2.21-1.66-.19-6.84.95-15.05,1.11-22.14.12-5.62-.61-17.46,0-19.92h42.06Z"/>
    <path class="cls-1" d="m759.85,869.91c.04.48,1.92-2.23,3.32,7.75-.43.71.7,3.69-.55,4.43-1.44.85-9.07-1.59-10.52,1.66-4.29,9.7,11.29,27.01-16.05,22.69-1.14-.81-.41-7.03-.55-8.85-.72-8.93.53-18.16,0-27.12q12.18-.28,24.35-.55Z"/>
    <path class="cls-1" d="m733.28,846.67c-.15,7.08-1.29,15.3-1.11,22.14-7.74.15-15.51-.2-23.24,0q.83-11.07,1.66-22.14h22.69Z"/>
    <path class="cls-1" d="m775.35,847.78v24.35c-3.07.08-7.36-.33-8.3,0-3.76,1.31-3.36,4.68-3.87,5.53-1.4-9.98-3.28-7.27-3.32-7.75-1.17-13.32-.78-26.67,15.5-22.14Z"/>
    <path class="cls-1" d="m294.96,660.71c3.99-.62,13.04.11,18.82,0,7.89-.15,15.5.92,23.24,1.11-.09,6.64.13,13.29,0,19.92-.15,8.08,1.14,16.58-1.66,18.82h-42.06l-.55,43.72c-1.22,2.76-18.48,1.66-22.14,1.66-7.01,0-14.02,0-21.03,0,0-.11-2.19.35-2.21-.55-.35-14.92,1.87-38.45-2.21-42.61.23-.01-1.35-.69,4.43-1.11.5-.04,6.42,3.34,9.96-.55.25-4.2-.36-8.54,0-12.73h14.39c-.39,9.99,3.84,17.1,14.94,12.18,2.77-1.23,1.65-18.97,1.66-22.69,0-.79-2.21-1.52-2.21-1.66,0-.69,2.01-5.58,1.11-13.84,1.56-2.49,3.45-1.34,5.53-1.66Z"/>
    <path class="cls-1" d="m206.41,627.51c.02,8.84,1,33.77,3.32,33.21-.39,0,1.54,1.12-7.75,1.11-11.23-.01-22.99-.87-34.31-1.11-1.42-.03-2.87,1.34-8.85-1.11.4-10.63.02-21.45,0-32.1h47.6Z"/>
    <path class="cls-1" d="m201.99,661.82v18.82h-12.18c-.15-1.82.58-8.05-.55-8.85-.38-.27-8.85-.24-9.41.55-.83,1.17-1.74,26.81-1.11,28.78.64,2.01,6.55-.45,3.87,6.09-3.74-.44-14.46.61-15.5,0-1.12-.66-.33-3.21-.55-4.43-1.17-6.28.04-33.21,1.11-42.06,11.32.24,23.09,1.09,34.31,1.11Z"/>
    <path class="cls-1" d="m167.67,660.71c-1.06,8.85-2.28,35.78-1.11,42.06-1.29.12-5.25,1.09-5.53,1.11-6.04.4-12.71.08-18.82,0,.78-6.22-.99-10.29-1.11-12.18,2.75-.46,15.6.86,16.6-.55.91-1.29.93-26.86,1.11-31.55,5.99,2.45,7.43,1.08,8.85,1.11Z"/>
    <g>
      <path class="cls-1" d="m245.15,702.78c4.08,4.17,1.86,27.7,2.21,42.61.02.9,2.21.44,2.21.55.03,1.04-1.14,1.17-1.11,2.21-13.64.22-27.32-.3-40.95,0-3.43,1.38-2.21-10.92-2.21-22.14,2.96-.48,17.8.88,18.82-.55.66-.93-.48-18.68,0-22.69,6.98-.2,14.07.4,21.03,0Z"/>
      <path class="cls-1" d="m224.12,702.78c-.48,4.01.66,21.77,0,22.69-1.01,1.43-15.85.08-18.82.55,0-7.56,0-15.13,0-22.69.79-1.12,15.94-.47,18.82-.55Z"/>
    </g>
    <path class="cls-1" d="m162.14,723.81c0,8.59.88,16.97,1.11,25.46h-29.89c0-.08-1.05.35-1.11-1.11-.32-8.46.24-16.99,0-25.46q14.94.55,29.89,1.11Z"/>
    <path class="cls-1" d="m259.54,675.1c-.25,4.36.37,8.93,0,13.28-.36,4.19.25,8.52,0,12.73-3.54,3.9-9.46.52-9.96.55.99-8.86.9-17.69,1.11-26.56h8.85Z"/>
    <path class="cls-1" d="m201.99,680.64c-.49,3.17.89,20-.55,21.03-.47.34-11.1.19-11.62-.55-.59-.84.27-17.08,0-20.48h12.18Z"/>
    <path class="cls-1" d="m260.65,660.71c.91,7.8-1.07,13.67-1.11,14.39h-8.85c.02-.95-3.27-2.2-2.21-8.3,2.76-1.95,2.13-3.29,2.21-6.09,0-.12,1.03.73,1.11-2.21,7-1.05,6.26,2.06,8.85,2.21Z"/>
    <path class="cls-1" d="m424.47,795.75c-1.96,33.28,5.67,16.88,11.62,21.03,3.8,2.65-10.1,10.51,22.69,9.41-9.57-5.04-8.73,19.24-8.85,41.51-9.38-.15-14.18,1.23-22.14-2.21-3.42-31.62,16.45,2.92,12.18-37.08-1.05-2.36-14.33-2.1-14.94-1.66-1.6,1.14-1.74,34.61-1.66,39.29.01.9,2.21.44,2.21.55.27,12.72-.2,25.47,0,38.19.05.91,2.21.44,2.21.55.02.28-1.08,1.3,0,5.53q-12.18-.55-24.35-1.11v-113.45q10.52-.28,21.03-.55Z"/>
    <path class="cls-1" d="m430,784.68c4.78.17,9.6-.11,14.39,0,8.85.2,17.72-.15,26.56,0-.01.74,0,1.48,0,2.21-.14,13.33,1.05,26.63,1.11,39.85.06,14.37,1.08,28.89,1.11,43.17,0,3.67-1.14,8.12-1.11,12.18l-20.48,1.11c-2.61-1.91-1.7-9.12-1.66-15.5.13-22.26-.71-46.55,8.85-41.51-32.79,1.1-18.89-6.76-22.69-9.41-5.95-4.15-13.58,12.25-11.62-21.03.53-9.08-2.49-12.22,5.53-11.07Z"/>
    <path class="cls-1" d="m379.09,745.94c3.93-.84,1.15,4.39,2.77,5.53,1.7,1.2,31.79-4.33,41.51-2.21-.02,4.42.1,8.86,0,13.28-6.63.62-37.82,2.75-39.85,2.21-6.65-1.77-1.42-9.33-3.87-11.07-.47-.34-11.1-.19-11.62.55-.37.52-.16,12.22.55,12.73,1.37.97,11.56-1.55,13.84,1.11-.33,2.35.74,12.43-.55,13.28q-9.69-.55-19.37-1.11c-.58-3.69.48-8.83,0-12.73-.11-.93-2.2-.44-2.21-.55-.55-6.13.4-12.64,0-18.82,1.03-.02-3.33-3.49,18.82-2.21Z"/>
    <path class="cls-1" d="m423.36,769.19c-.16,4.51.14,8.86-1.11,13.28-3.56-.2-21.56,2.7-23.8,1.11-.69-.49-.95-13.27-.55-13.84,1.04-1.47,21.87-.04,25.46-.55Z"/>
    <path class="cls-1" d="m383.51,764.76c.52,3.81-1.08,3.15-1.11,3.32-2.27-2.66-12.47-.13-13.84-1.11-.72-.51-.92-12.21-.55-12.73.52-.74,11.15-.89,11.62-.55,2.45,1.74-2.77,9.3,3.87,11.07Z"/>
    <path class="cls-1" d="m789.74,204.68v37.63c-11.51,1.35-4.01,4.42-8.3,6.64-1.33.69-25.3-2.62-29.89-1.11-1.22.86-.34,16.84-.55,19.92-.5,7.35-.25,14.95-2.21,22.14-2.26-.12-12.48.58-13.28-.55,1.33-15.32-3.21-45.05,3.32-43.72,6.06-.04,12.51.99,14.39-1.66,6.67-23.41-17.94-18.17-19.37-17.16-1.97,1.39,1.16,14.06-1.66,17.71-14.44,0-37.43-1.59-43.17,2.21-.03-.3-1.46-5.14-2.21-5.53.12,0-.74-.16,2.21-1.11,1.51,6.09,14.47,2.33,27.12,3.32,1.18-.83.36-8,.55-9.96.19-1.97-.62-9.13.55-9.96h35.42c2.67-1.86,1.44-4.88,1.66-7.75,3.36.35,12.03-.49,12.73,0,1.13.8.42,8.03.55,9.96.5,7.34-2.87,23.07,11.62,16.6,3.99-1.78.51-15.77.55-16.6.34-7.1,1.16-13.82,1.11-21.03,0-.37,0-.74,0-1.11,8.26-.74,8.41,1.11,8.85,1.11Z"/>
    <path class="cls-1" d="m780.88,180.33c.52,7.65-.13,15.56,0,23.24,0,.37,0,.74,0,1.11-9.22.1-18.45-.13-27.67,0,.14-3.3,1.17-23.64,2.77-24.35h24.9Z"/>
    <path class="cls-1" d="m513.02,869.91h-39.85c-.03-14.28-1.05-28.8-1.11-43.17q20.48.28,40.95.55v42.61Z"/>
    <path class="cls-1" d="m449.93,867.7c-.04,6.38-.95,13.59,1.66,15.5l20.48-1.11c.06,7.75-.05,15.5,0,23.24h-44.27c0-.11-2.16.36-2.21-.55-.2-12.72.27-25.47,0-38.19.94.19,1.43-1.45,2.21-1.11,7.96,3.45,12.76,2.06,22.14,2.21Z"/>
    <g>
      <path class="cls-1" d="m472.06,951.82c-9.58-.25-19.21.34-28.78,0q.55-13.84,1.11-27.67c3.53.16,25.07.89,26.01,0,1.99-1.88-1.17-13.56,1.66-16.6.09,14.76-.13,29.52,0,44.27Z"/>
      <path class="cls-1" d="m472.06,905.33c0,.74,0,1.48,0,2.21-2.83,3.04.33,14.72-1.66,16.6-.94.89-22.48.16-26.01,0v-18.82h27.67Z"/>
    </g>
    <g>
      <path class="cls-1" d="m829.58,671.78c2.09-.45,5.36.31,7.75,0,.23,5.51-.32,11.1,0,16.6.12,2.04-.58,10.27.55,11.07q14.11,1.38,28.23,2.77-.55,62.54-1.11,125.08l-25.46,1.66c.06-7.01-.09-14.02,0-21.03.37-29.87,1.68-59.79,2.21-89.66,7.24-.37,17.12,2,12.18-10.52-.85-2.16-24.66.84-28.78-1.11.36-5.14-.88-32.84,0-34.31.68-1.14,3.22-.29,4.43-.55Z"/>
      <path class="cls-1" d="m839.54,807.93c-.09,7.01.06,14.02,0,21.03h-19.92c.06-7-.08-14.03,0-21.03h19.92Z"/>
    </g>
    <g>
      <path class="cls-1" d="m819.62,788c-.02,6.64.08,13.29,0,19.92-.08,7,.06,14.03,0,21.03-.12,13.8-1.2,27.62-1.11,41.51,0,.9,2.21.44,2.21.55,0,1.05-1.12,1.17-1.11,2.21-8.48-.09-16.98.13-25.46,0-.9-28.42,2.11-56.82,1.11-85.23h24.35Z"/>
      <path class="cls-1" d="m798.59,743.73c.55,3.01-.65,14.02,0,14.94,1.03,1.46,7.39-.08,8.3.55,2.59,1.81-4.72,11.34,12.73,8.85.2,6.77.02,13.19,0,19.92h-24.35c-.21-6.07.15-12.19,0-18.26-1.09-2.46-8.73-1.82-11.07-1.66v-16.6c1.71-.23,13.3-5.03,14.39-7.75Z"/>
    </g>
    <path class="cls-1" d="m687.9,205.79c1.75.3,6.87-.69,7.75.55-.08,5.35.11,10.7,0,16.05-.03,1.56-1.88,5.27-1.11,11.07,1.69,2.99-3.03,5.84-5.53,6.64-2.95.94-2.09,1.1-2.21,1.11-1.43.1-5.99.37-6.64-.55-1.8-22.61,3.9-14.28,5.53-16.6.61-.87-.44-14.64,0-18.26.71.09,1.51-.12,2.21,0Z"/>
    <path class="cls-1" d="m780.88,204.68c.05,7.21-.76,13.93-1.11,21.03h-12.18c-.13-1.93.58-9.16-.55-9.96-.7-.49-9.37.35-12.73,0,.45-5.99-1.2-8.82-1.11-11.07,9.22-.13,18.45.1,27.67,0Z"/>
    <path class="cls-1" d="m716.68,233.46c-.19,1.97.62,9.13-.55,9.96-12.65-.99-25.61,2.77-27.12-3.32,2.5-.8,7.22-3.65,5.53-6.64h22.14Z"/>
    <path class="cls-1" d="m515.23,745.94c.04.86,1.92,15.41,2.21,17.16.29,1.72,4.81,1.05,1.11,6.09-4.46,1.81-4.43,6.66-3.32,14.39-15.4,1.38-39.86-3.3-44.27,3.32,0-.74-.01-1.48,0-2.21.09-5.32-1.22-37.46,1.66-38.74h42.61Z"/>
    <path class="cls-1" d="m517.44,793.54c1.57-.35,4.42.14,6.64,0-.53,4.1.94,29.93-.55,30.99-.43.3-9.97.21-10.52-.55-.86-1.22.65-25.5,0-29.89.68-1.15,3.22-.29,4.43-.55Z"/>
    <path class="cls-1" d="m557.29,813.46c.31,3.15.53,5.67,0,8.85-2.55-.09-5.23.27-7.75,0-1.72-.18-6.93.6-7.75-.55-.36-.51.19-5.4,0-7.19,5.86-.44,11.82,2.15,14.39-4.43,0,2.3,1.01,2.37,1.11,3.32Z"/>
    <path class="cls-1" d="m547.33,844.45c-.22,3.31-.92,6.71-1.11,9.96-10.3,2.7-9.63-13.51,1.11-9.96Z"/>
    <path class="cls-1" d="m733.28,692.81c.67,17.37,1.8,34.62,1.11,52.02-.88,0-.97,1.13-3.32,1.11-4.06-.03-8.12.06-12.18,0-4.43-.07-8.86.05-13.28,0h-13.28c0-.11-2.19.35-2.21-.55-.35-12.53.26-25.1,0-37.63,1.34-3.02,13.76-1.23,21.03-1.66,2.34-.14,10.02.35,10.52,0,3.34-2.37-6.47-16.38,11.62-13.28Z"/>
    <path class="cls-1" d="m714.47,662.93h17.71c1.25,10.26.71,19.69,1.11,29.89-18.1-3.1-8.28,10.91-11.62,13.28-.5.35-8.18-.14-10.52,0v-40.4c1.8-3.89,3.3-2.55,3.32-2.77Z"/>
    <g>
      <path class="cls-1" d="m690.12,633.04c.36,6.63-1.28,13.34,1.66,15.5h22.69c-.35,4.62.51,9.95,0,14.39-.02.21-1.52-1.12-3.32,2.77v40.4c-7.27.43-19.69-1.36-21.03,1.66.26,12.53-.35,25.11,0,37.63.03.91,2.21.44,2.21.55.05,1.1-.05,2.22,0,3.32-12.22-3.07-25.42.32-37.63-1.11,18.26-.77,11.22-6.4,12.18-21.03,2.09-32.11.74-64.17,1.11-96.3q11.07,1.11,22.14,2.21Z"/>
      <path class="cls-1" d="m666.87,727.13c-.95,14.63,6.09,20.26-12.18,21.03-1.59-.19-5.83.59-6.64-.55-.16-6.82.21-13.66,0-20.48h18.82Z"/>
    </g>
    <g>
      <path class="cls-1" d="m717.79,606.48c4.24,0,8.49,0,12.73,0,2.13,1.47,1.47,2.6,1.66,3.32.4,1.52.91,30.26,0,31.55-1.19,1.68-8.26-.85-12.18,1.66-2.36-10.12-4.99-1.75-5.53,5.53h-22.69c-2.94-2.16-1.3-8.87-1.66-15.5-.36-6.6.26-13.31,0-19.92l3.32-3.32c6.77.41,13.84,4.73,15.5-3.32,2.68,1.43,6.3,0,8.85,0Z"/>
      <path class="cls-1" d="m720,643c.44,1.9-.8,7.9.55,8.85,1.02.73,10.53-.99,11.62.55.46.65-.29,8.14,0,10.52h-17.71c.51-4.44-.35-9.77,0-14.39.55-7.29,3.17-15.66,5.53-5.53Z"/>
    </g>
    <path class="cls-1" d="m562.83,503.54c-.01,19.15,1.94,38.45,2.21,57.56.18,13.07-2.35,26.65-1.11,39.85q-11.07.55-22.14,1.11c-.04-.2-3.28-1.35-3.32-1.66-1.93-15.17.54-74.15,0-96.85,8.08-.03,16.29-.31,24.35,0Z"/>
    <path class="cls-1" d="m603.78,505.75c.92,10.24-1.24,47.91,0,51.47.3.85,1.44.56,2.21.55-1.47,1.88-1.52.45-2.21,3.32-5.96-1.74-14.68-1.38-21.03-1.11v-54.79c-1.37-.97-2.8-1.31-4.43-1.66,3.1-25.02-8.52-11.38-11.07-17.16-5.31-12.04,11.53-10.26,12.73-9.41,1.49,1.06-.14,6.73.55,8.3,2.08,4.74,10.15-6.71,7.75,18.82,5.14.12,10.45,1.26,15.5,1.66Z"/>
    <path class="cls-1" d="m563.93,600.94c.05.51,6,6,1.66,8.85h-22.14c-1.07.36.34,1.95-1.66,3.32-1.84-5.59.54-8.47,0-11.07q11.07-.55,22.14-1.11Z"/>
    <path class="cls-1" d="m503.06,619.76c-.08-5.55-1.77-12.01-1.66-17.71h-27.67c-2.25,1.6.54,13.08.55,15.5.03,7.36-.25,14.77,0,22.14.23,6.81-.17,13.66,0,20.48,7.62,2.02,13.67-.58,14.39-.55,2.89.12,20.34,1.21,21.03,2.77v38.19c-11.72.23-23.61,2.12-35.42,1.11q-1.11-1.11-2.21-2.21v-35.97c-1.2-2.71-20.55-1.74-24.35-1.66-3.67.07-19.5-.65-21.03.55q-.55,19.09-1.11,38.19c-.12,0,.67,1.14-2.21,1.11-8.1-.09-16.26.29-24.35,0-2.45-.09-14.7.56-15.5-.55v-38.74c.81-1.15,16.91-.44,19.92-.55,3.13-.12,20.21.6,21.03-.55.3-15.85-.4-31.75,0-47.6.02-.91,2.21-.44,2.21-.55,6.99-.23,14.05.32,21.03,0,24.45-1.1,8.52-4.89,13.28-11.62,1.12-1.59,8.84.48,9.96-1.11.4-.56-.1-11.4,0-13.84h14.39c.36,5.58.08,15.72,10.52,11.07,3.26-1.45.85-9.45,1.66-12.73.12-.5,3.06-.9,3.32-2.21.63-3.22-.71-15.6,0-16.6.65-.91,12.64-.91,13.28,0,.48.68.48,15.93,0,16.6-1.12,1.58-6.9-.45-8.85,1.11-1.19.95-1.72,16.31-1.11,17.71,1.45,3.28,8.78.53,9.96,2.21.76,1.09,4,21.8-11.07,16.05Z"/>
    <path class="cls-1" d="m474.28,701.67c-4.73,4.35-1.07,27.65-2.21,41.51l-27.67,1.66h-19.92c.02-14.24-2.31-28.84-1.11-43.17,2.89.03,2.09-1.11,2.21-1.11,7.23.06,14.72,1.14,22.14,1.11,10.81-.05,22.14,1.36,24.35-2.21q1.11,1.11,2.21,2.21Z"/>
    <path class="cls-1" d="m775.35,805.71c-.01,7.01-.01,14.02,0,21.03h-42.06c1.89-7.59,10.6-.01,16.6-4.98.15-5.34-.21-10.71,0-16.05h25.46Z"/>
    <path class="cls-1" d="m775.35,805.71h-25.46c.11-2.88.18-5.98,0-8.85q12.73-.55,25.46-1.11c0,3.32,0,6.64,0,9.96Z"/>
    <path class="cls-1" d="m575,802.39c1.19,10.52-2.18,10.46-2.21,11.07h-15.5c-.09-.95-1.1-1.02-1.11-3.32,0-2.13-.76-6.68,1.66-7.75,5.67-.33,11.51.45,17.16,0Z"/>
    <path class="cls-1" d="m596.03,821.21c-3.69.07-7.38-.09-11.07,0-4.32-9.85-.09-19.1,10.52-14.39,3.94,1.75.56,11.89.55,14.39Z"/>
    <path class="cls-1" d="m572.79,813.46c-.02.45,4.09.01,1.11,7.75-3.9.11-7.97,1.16-12.18,1.11-1.47-.02-2.96.05-4.43,0,.53-3.18.31-5.71,0-8.85h15.5Z"/>
    <path class="cls-1" d="m628.13,505.75c5.76-1.29,2,5.32,3.87,6.64.84.59,8.01-.59,8.85,0,1.37.97,0,5.09.55,6.09,2.99,5.37,10.12-11.22,7.75,38.19-7.75,2.15-16.37.89-24.35,1.11-6.26.17-12.55-.13-18.82,0-.77,0-1.92.3-2.21-.55-1.24-3.56.92-41.23,0-51.47.37.03.74-.02,1.11,0,7.68.52,15.54-.38,23.24,0Z"/>
    <path class="cls-1" d="m693.44,557.78c-3.41,12.75.46,26.1,0,38.74-.16,4.42.11,8.86,0,13.28l-3.32,3.32c2.08-3.87-9.2-2.27-22.14-2.21-7.01.03-14.02-.02-21.03,0,0-.14-.94.09-2.21-1.66v-48.7c4.46-.45,4.2-1.6,4.43-1.66,2.54-.67,14.1.27,19.92,0,6.96-.32,14.12-.86,21.03-1.11,1.1-.04,2.22.04,3.32,0Z"/>
    <path class="cls-1" d="m797.48,710.52c0,.37,0,.74,0,1.11,0,.14-2.21.86-2.21,1.66-.05,9.22.03,18.45,0,27.67,1.29,1.95,3.04,1.26,3.32,2.77-1.09,2.72-12.68,7.52-14.39,7.75-.55.07-3.31-1.94-11.07-1.11-.04-.42-1.2,3.14-2.21-6.64-.41-3.93.01-4.21,0-4.43,16.98-3.15,8.91,10.17,12.18,9.41-.37-8.15.86-16.84,0-24.9-.22-2.1-1.27-6.4-3.32-7.75,6.46-1.72-1.26-20.32,14.94-13.28,1.2.52,2.77,7.34,2.77,7.75Z"/>
    <path class="cls-1" d="m784.2,751.48v16.6c-1.6.11-9.37,1.41-9.96,2.77-.03,3.5.04,7.01,0,10.52q-9.96-.55-19.92-1.11c2.42-6.36-1.32-9.99,1.66-11.07q8.58-.28,17.16-.55c1.22-18.49-2.14-15.71-2.21-16.6-.06-.8,2.37-.06,2.21-1.66,7.76-.84,10.52,1.18,11.07,1.11Z"/>
    <path class="cls-1" d="m731.07,745.94c-.49,3.07.88,18.9-.55,19.92-.45.32-10.62.32-11.07,0-1.12-.79-.45-8.05-.55-9.96-.18-3.26.16-6.69,0-9.96,4.06.06,8.12-.03,12.18,0Z"/>
    <path class="cls-1" d="m718.9,745.94c.16,3.28-.18,6.71,0,9.96h-12.18c-.04-.5-1.87-3.22-1.11-9.96,4.43.05,8.86-.07,13.28,0Z"/>
    <path class="cls-1" d="m754.32,780.26q9.96.55,19.92,1.11c-.02,1.47-.01,2.95,0,4.43h-22.69c-2.57-7.47,2.62-5.14,2.77-5.53Z"/>
    <path class="cls-1" d="m514.12,646.33c-.11,0,.36,2.15-.55,2.21-8.22.59-16.66-.43-24.9,0-.08-2.58.11-5.17,0-7.75-.03-.74.03-1.48,0-2.21,2.95-.35,10.92.5,11.62,0,.46-.32,1.29-9.08,1.66-11.07,20.17-1.74,11.36,3.95,12.18,18.82Z"/>
    <path class="cls-1" d="m488.67,640.79c.11,2.57-.08,5.17,0,7.75v11.07c-.72-.03-6.76,2.57-14.39.55-.17-6.82.23-13.67,0-20.48q7.19.55,14.39,1.11Z"/>
    <path class="cls-1" d="m674.62,793.54c.08.66,1.76,2.23,1.11,6.64-3.91-.04-9.37,1.45-13.28,2.21.04-2.28-.87-7.74,1.66-8.85,1.21-.54,7.2.37,10.52,0Z"/>
    <path class="cls-1" d="m818.51,657.39h-35.97c-2.31,1.02-2.26,27.99-1.66,29.33,1.15,2.6,10.48,1.94,11.07,1.11,1.05-1.49-1.86-14.49,1.66-16.05,11.89-5.27,12.55,5.02,13.28,5.53.41.29,9.56.29,9.96,0,.68-.48,1.42-14.02,1.66-16.6h5.53c-.24,10.7,5.73,7.75,5.53,11.07-1.21.26-3.75-.59-4.43.55-.88,1.48.36,29.18,0,34.31,4.12,1.95,27.93-1.05,28.78,1.11,4.95,12.51-4.93,10.14-12.18,10.52-7.53.39-15.15-.28-22.69,0-1.75-1.24.64-17.58-1.11-18.82-.45-.32-10.62-.32-11.07,0-1.42,1,.04,6.35-.55,7.19-.86,1.22-9.8.05-8.85,3.87,0-.41-1.57-7.23-2.77-7.75-16.2-7.04-8.48,11.57-14.94,13.28-12.8,3.4-9.49-12.93-8.85-13.84.48-.68,11.71.36,6.64-11.07-1.62-3.65-15.19-.21-16.6-2.21-.43-.61-.7-13.9,1.66-14.94,1.98-.88,12.65,1.12,13.84-.55.75-1.06-.08-22.31,0-26.01,15.23-.83,38.75,4.99,42.06-2.21-.25,4.02.35,8.18,0,12.18Z"/>
    <path class="cls-1" d="m796.38,613.12q11.62.55,23.24,1.11c-1.55,6.44-.6,22.84-1.11,30.99-3.31,7.2-26.83,1.38-42.06,2.21.25-11.4.94-22.97,1.11-34.31h18.82Z"/>
    <path class="cls-1" d="m717.79,606.48c-2.55,0-6.17,1.43-8.85,0,1.12-5.44-1.13-9.46-1.11-9.96.19-3.33.67-20.6,1.11-21.58,1.08-2.43,8.18-2.06,8.85-1.11.94,1.33-.71,28.04,0,32.65Z"/>
    <g>
      <path class="cls-1" d="m756.53,509.07q-.55,11.9-1.11,23.8c6.35,1.77,8.37,3.85,8.85,3.87-3.74,28.47,12.96,5.2,11.07,24.35-2.08.63-.45,2.89-1.66,3.32-2.27.8-11.57-1.08-12.73.55-1.31,1.85,1.81,36.12-1.11,45.38.82,2.39,17.15,3.01,17.71-.55,2.69.72.02,2.22,0,3.32-.17,11.34-.86,22.91-1.11,34.31-.08,3.7.75,24.95,0,26.01-1.19,1.67-11.85-.33-13.84.55-2.36,1.05-2.09,14.33-1.66,14.94,1.42,2,14.98-1.44,16.6,2.21,5.06,11.43-6.16,10.39-6.64,11.07-.64.91-3.94,17.24,8.85,13.84,2.05,1.35,3.1,5.65,3.32,7.75-17.34-2.18-12.8,3.27-12.18,15.5.01.22-.41.49,0,4.43q-8.3-.55-16.6-1.11c2.6-9.94-1.27-111.41-1.11-134.48-.67-1.12-3.21-.33-4.43-.55,9.2-19.07-22-19.19-13.28,0-3.19.49-1.35,1.14-3.32,2.21-.19-.72.47-1.85-1.66-3.32-4.24,0-8.49,0-12.73,0-.71-4.61.94-31.32,0-32.65-.67-.95-7.78-1.32-8.85,1.11-.44.99-.92,18.25-1.11,21.58h-14.39c.46-12.64-3.41-25.99,0-38.74,12.7-.45,25.48.33,38.19,0q.83-24.07,1.66-48.15c.8-1.13,19.92-.46,23.24-.55Z"/>
      <path class="cls-1" d="m734.94,559.99c.47-.34,11.1-.19,11.62.55.69.97.56,22.81-1.66,23.8-.87.38-10.03.13-10.52-.55-.69-.97-.42-23.11.55-23.8Z"/>
    </g>
    <path class="cls-1" d="m783.09,723.81c.86,8.07-.37,16.76,0,24.9-3.27.76,4.8-12.56-12.18-9.41-.63-12.22-5.17-17.67,12.18-15.5Z"/>
    <path class="cls-1" d="m707.83,596.52c-.03.5,2.22,4.52,1.11,9.96-1.65,8.05-8.72,3.73-15.5,3.32.11-4.42-.16-8.87,0-13.28h14.39Z"/>
    <path class="cls-1" d="m748.78,607.58c-1.73-.32-11.32-.3-13.28,0-8.72-19.19,22.48-19.07,13.28,0Z"/>
    <path class="cls-1" d="m817.41,401.71c-1.1,37.02.82,74.21,0,111.24-.82,1.16-21.88.43-25.46.55.9-5.93.97-11.73,1.11-17.71.69-31.26-.19-62.76,0-94.08h24.35Z"/>
    <path class="cls-1" d="m818.51,657.39c-.01.17.34-.34,0,3.32-.24,2.59-.98,16.12-1.66,16.6-.41.29-9.55.29-9.96,0-.73-.51-1.4-10.81-13.28-5.53-3.52,1.56-.61,14.56-1.66,16.05-.59.83-9.92,1.49-11.07-1.11-.6-1.34-.65-28.31,1.66-29.33h35.97Z"/>
    <path class="cls-1" d="m837.33,661.82v9.96c-2.39.31-5.65-.45-7.75,0,.19-3.31-5.78-.37-5.53-11.07,4.41-1.04,9.11.93,13.28,1.11Z"/>
    <g>
      <path class="cls-1" d="m824.05,331.97c-3.06,14.14-2.16,11.58,8.85,12.18-1.34,5.58,3.18,9.26,0,13.28-2.12.27-10.19-.69-11.07.55q-.28,10.24-.55,20.48c-9.4.19-18.83.1-28.23,0-9.54-.1-16.82,1.16-15.5-2.21,1.36-6.26-1-31.72,0-42.61,14.18-1.33,28.42-.13,42.61-.55.91-.03.44-2.21.55-2.21.87-.02.96,1.12,3.32,1.11Z"/>
      <path class="cls-1" d="m851.72,343.04c-.15,4.23.11,8.49,0,12.73-.85,1.21-6,.3-7.75.55-3.53.52-7.43.65-11.07,1.11,3.18-4.02-1.34-7.7,0-13.28,6.42.35,12.45-1.08,18.82-1.11Z"/>
    </g>
    <path class="cls-1" d="m850.61,375.14c-4.68.32-9.53,2.04-14.39,1.11.06-3.55-.93-14.56,1.11-16.6.84,11.33,16.68-5.21,13.28,15.5Z"/>
    <path class="cls-1" d="m250.69,267.78c-.18,7,.25,14.04,0,21.03-.3,8.3-1.92,17.15-2.21,25.46-1.88-1.52-11.4-1.64-12.18-.55-.86,1.22-4.25,26.24,12.18,17.16,0,.37,0,.74,0,1.11-.18,13.99-1.08,28-1.11,42.06,0,3.38,2.21,1.58,2.21,3.32h-40.95c-2.01-6.12-1.1-14.43-1.11-21.03q9.96-.83,19.92-1.66c.65-28.96,1.64-57.91,1.11-86.89h22.14Z"/>
    <path class="cls-1" d="m249.58,377.36c0,10.76.95,21.44,1.11,32.1,0,.28-1.21-.22-1.11,5.53.05,2.88-1.11,2.09-1.11,2.21-7.01,0-14.02,0-21.03,0-3.13,0-21.39.5-22.14-.55v-35.97l3.32-3.32h40.95Z"/>
    <path class="cls-1" d="m291.64,393.96c.13,3.49.49,21.93-.55,23.24-26.65,5.33-16.99-5.13-20.48-7.75-.23-.18-1.47.16-2.21,0,.73-3.47,2.2-13.05,2.21-15.5h21.03Z"/>
    <path class="cls-1" d="m335.92,418.31c.01,16.16,1.24,32.45,1.11,48.7h-23.24v-48.7c7.38-.05,14.76.04,22.14,0Z"/>
    <path class="cls-1" d="m268.4,409.45c.74.16,1.98-.18,2.21,0,2.97,10.31-14.31,6.65-21.03,5.53-.11-5.76,1.11-5.25,1.11-5.53,5.18.59,13.83-.82,17.71,0Z"/>
    <path class="cls-1" d="m268.4,613.12c8.73.02,17.99-.91,26.56,1.11-.01,15.06.92,30.4-1.11,45.38-4.55-.53-12.41-.03-17.71,0-4.77.03-14.72,1.15-15.5,1.11-2.59-.15-1.86-3.26-8.85-2.21.38-15.02.32-30.35,0-45.38,5.48.29,11.1-.01,16.6,0Z"/>
    <path class="cls-1" d="m251.8,613.12c-12.94-.67-13.56,3.88-11.62-13.28q5.81-.83,11.62-1.66c.08,4.98-.11,9.97,0,14.94Z"/>
    <path class="cls-1" d="m293.86,659.61c.83.1,1.23.15,1.11,1.11-2.08.32-3.97-.83-5.53,1.66.9,8.26-1.11,13.14-1.11,13.84h-11.07c.03-.83-2.17-10.27-1.11-16.6,5.3-.03,13.16-.53,17.71,0Z"/>
    <path class="cls-1" d="m164.35,392.85h6.64c.68,16.72-4.03,19.06,9.96,17.71.18,1.45,1.49,7.19,2.77,7.75q10.79.28,21.58.55c.1,7.19-.13,14.39,0,21.58.15,7.93-.11,15.87,0,23.8-1.24,2.8-20.44,1.63-24.35,1.66-5.89.05-12.69-.99-18.82-1.11-.77,0-1.92.3-2.21-.55-1.75-5.02,1.83-64.04,0-71.39h4.43Z"/>
    <path class="cls-1" d="m384.62,379.57v39.85c-.97.24-2.75-.54-3.32.55-.21,15.67.28,31.37,0,47.04-.27,14.7-2.1,29.51-1.11,44.27-8.12,0-16.23.04-24.35,0l2.21-137.25c4-.04,8.64.77,12.18-1.11,1.47,6.03,8.88,6.29,14.39,6.64Z"/>
    <path class="cls-1" d="m380.19,344.15c-1.45,18.52-6.83,6.04-9.96,10.52-.52.75-.22,17.38,0,18.26-3.54,1.87-8.18,1.07-12.18,1.11-7.01.07-14.02-.05-21.03,0-.03-4.36-3.48-29.2.55-30.99q21.31.55,42.61,1.11Z"/>
    <path class="cls-1" d="m401.22,291.02c6.11-.18,18.56-.6,23.24,0,3.24.41,1.35,1.24,3.32,2.21-.83,3.13-.44,37.81,1.66,38.74,13.07,1.11,26.32-1.01,39.29-1.11,1.11,0,2.21,0,3.32,0-1.87,7.41-1.25,16.63-1.11,24.35.14,7.19-.1,14.39,0,21.58.81,1.14,17.92.45,21.03.55,3.73.12,23.89-.72,24.9,0,3.11,2.2-4.37,12.01,6.09,14.39,2.23,26.56-5.26,16.01-7.75,20.48,2.25,10.02-8.48,6.54-22.14,7.19-3.27.16-21.3-.63-22.14.55,1.07,15.66-.95,31.45-1.11,47.04-7.38.08-14.76-.11-22.14,0-3.06.04-20.26-.54-21.03.55q-.55,21.31-1.11,42.61c-2.9-.02-2.09,1.11-2.21,1.11-6.64-.03-13.28,0-19.92,0-7.38,0-14.75,0-22.14,0-.37,0-.74,0-1.11,0-.99-14.76.84-29.58,1.11-44.27,7.38-.02,14.76.02,22.14,0,3.66-.01,20.91,1.1,22.14-1.66v-44.27c-1.24-2.78-18.35-1.62-22.14-1.66-4.87-.05-16.78-.51-18.82,0v-39.85c8.3.53,29.67-2.66,40.95-1.11.14,13.36,2.19,26.96,1.11,40.4.76,1.08,17.99.52,21.03.55,3.09.03,21.41.48,22.14-.55v-39.85c-1.28-2.89-13.43-1.39-19.92-1.66-11.63-.48-24.31,1.69-23.24-2.21-.16-14.57.12-29.15,0-43.72q-21.58-.28-43.17-.55c.87-8.22-.53-19.73,0-28.78.12-2.04-.58-10.27.55-11.07,5.71-.12,11.45.16,17.16,0Z"/>
    <path class="cls-1" d="m490.88,205.79c6.27-.02,12.54.02,18.82,0,.26,1.13.41,7.3,1.66,7.75,13.39,4.82,13.4-4.18,13.84-4.98.54-1.01,2.18-.42,2.21-.55,14.44-4.6,10.63,10.68,9.96,11.62-1.06,1.49-25.38.02-29.33.55-1.35.95-.18,14.84-.55,17.71-.49,3.72-2.2,3.12-2.21,3.32h-34.31v-33.76c2.3-2.72,11.59-1.63,19.92-1.66Z"/>
    <path class="cls-1" d="m583.86,309.84c.53,6.81.87,13.1,1.11,19.92.21,6.07-.15,12.19,0,18.26.95,1.34,11.59.4,12.18.55.28.07.06,1.23,5.53,1.66v21.58c-.11,0,.35,2.19-.55,2.21-7.99.88-15.9-.7-23.8-1.11v-23.8c-.81-1.15-6.03-.38-7.75-.55l1.11-38.74c4.03.23,8.13-.17,12.18,0Z"/>
    <g>
      <path class="cls-1" d="m560.61,287.7c-8.12.06-16.24-.08-24.35,0-5.53.05-11.07-.01-16.6,0-3.76-14.29.81-32.64,1.11-39.85q19.92.28,39.85.55c.31,13.08-.41,26.22,0,39.29Z"/>
      <path class="cls-1" d="m520.77,247.85c-.29,7.21-4.87,25.55-1.11,39.85-2.36,0-2.45,1.11-3.32,1.11-.56,0-3.66-1.06-11.07-1.11,1.05-15.21-1.41-31.39,0-46.49.02-.2,1.73.4,2.21-3.32,11.66,3.7,13.86-4.3,13.28,9.96Z"/>
    </g>
    <path class="cls-1" d="m596.03,329.76h-11.07c-.23-6.82-.58-13.11-1.11-19.92-.12-1.5.1-3.07,0-4.43,14.54-1.45,10.35-.5,12.18,24.35Z"/>
    <g>
      <path class="cls-1" d="m551.2,224.61c12.75-5.7,9.86,14.78,8.85,15.5-.43.3-9.97.21-10.52-.55-.44-.61-.7-13.89,1.66-14.94Z"/>
      <path class="cls-1" d="m547.88,198.04c12.74-5.67,13.75,10.27,11.07,12.18-.52.37-12.22.16-12.73-.55-.34-.48-.72-10.56,1.66-11.62Z"/>
    </g>
    <path class="cls-1" d="m645.84,254.49c-.41,12.15.3,24.37,0,36.53l-1.11,1.11c-1.83.12-3.72-.18-5.53,0-.41-3.44.57-15.24,0-16.05-.96-1.35-9.88-.14-12.18-.55.42-7.33-.3-14.79,0-22.14,5.8,0,13.91-.89,18.82,1.11Z"/>
    <path class="cls-1" d="m470.96,245.64c2.63.19,18.27.89,18.82,1.66.35.5.35,11.68,0,12.18-1.41,1.99-21.01-3.47-15.5,8.85,1.62,3.61,14.11.25,15.5,2.21.83,1.18-1.09,17.09.55,18.26,2.14,1.52,12.21-1.12,14.94-1.11,7.41.05,10.51,1.11,11.07,1.11.08,7.38-.11,14.76,0,22.14.04,3.06-.54,20.26.55,21.03,9.76.29,19.58-.39,29.33,0-1.83,4.42.04,9.07,0,13.28-.04,4.32-.43,6.31,0,11.07.54,5.91,1.87,11.69,1.11,17.71-10.11-.46-20.32.34-30.44,0q-.83-21.31-1.66-42.61c-.81-1.14-18.92-.45-22.14-.55-6.98-.22-14.04-.03-21.03,0-1.11,0-2.21,0-3.32,0,.99-13.66-.84-27.37-1.11-40.95-.29-14.75.21-29.52,0-44.27,1.1.06,2.22-.08,3.32,0Z"/>
    <path class="cls-1" d="m467.64,245.64c.21,14.75-.29,29.53,0,44.27h-38.19c-2.13,1.47-1.47,2.6-1.66,3.32-1.98-.98-.08-1.8-3.32-2.21.63-11.72-.85-23.73,0-35.42.29-3.97-1.12-8.05,1.66-9.96,13.78.57,27.76-.76,41.51,0Z"/>
    <path class="cls-1" d="m505.27,241.21c-1.41,15.1,1.05,31.27,0,46.49-2.73-.02-12.8,2.63-14.94,1.11-1.65-1.17.28-17.09-.55-18.26-1.39-1.96-13.88,1.4-15.5-2.21-5.51-12.33,14.09-6.87,15.5-8.85.35-.5.35-11.68,0-12.18-.55-.77-16.19-1.47-18.82-1.66v-4.43h34.31Z"/>
    <path class="cls-1" d="m424.47,255.6c-.85,11.69.63,23.7,0,35.42-4.68-.6-17.14-.18-23.24,0,.2-12.17-.28-24.36,0-36.53q11.62.55,23.24,1.11Z"/>
    <path class="cls-1" d="m685.69,205.79c-.44,3.62.61,17.4,0,18.26-1.63,2.33-7.33-6-5.53,16.6.65.92,5.21.66,6.64.55.76.39,2.18,5.24,2.21,5.53,1.27,12.22-.94,30.47,0,43.72-.75,1.06-20,.55-23.24.55,1.27-28.78.93-57.54,1.11-86.34,6.4-.53,12.49.3,18.82,1.11Z"/>
    <path class="cls-1" d="m663.55,292.13c1.69,2.42,1.05,5.07,1.11,7.75q-9.96.55-19.92,1.11c-.02-2.95.01-5.9,0-8.85l1.11-1.11c5.79-1.17,12.15,1.11,17.71,1.11Z"/>
    <path class="cls-1" d="m383.51,722.7c-.04,2.7.08,11.57,0,12.18-.56,4.17-1.67,7.73-4.43,11.07-22.14-1.28-17.79,2.2-18.82,2.21-.34,0-3-1.38-6.64-1.66v-44.27q14.11-.28,28.23-.55c2.47,1.98,1.73,16.92,1.66,21.03Z"/>
    <path class="cls-1" d="m423.36,701.67c-1.2,14.33,1.13,28.93,1.11,43.17,0,.23-1.09,1.09-1.11,4.43-9.72-2.11-39.81,3.42-41.51,2.21-1.62-1.15,1.16-6.37-2.77-5.53,2.76-3.34,3.87-6.9,4.43-11.07,3.31-.4,14.16.56,14.94,0,1.23-.87.31-9.95.55-12.18.77-6.98,2.6-14.07,0-21.03,8.09.29,16.25-.09,24.35,0Z"/>
    <g>
      <path class="cls-1" d="m317.1,747.05c6.27-.01,12.61.26,18.82,1.11,1.88.26,7.99-.67,8.85.55,1.07,5.64-1,13.2-1.11,17.16-14.14-1.77-9.5,3.12-11.07,15.5-.44,3.5-2.07,1.57-2.21,3.32h-16.6c-3.07.49-18.9-.88-19.92.55-.37.52-.16,12.22.55,12.73.63.45,10.1-.25,12.73,0,.43,1.46-2.2,5.24-2.21,5.53-16.47-6.15-13.01,17.08-12.18,18.26.8,1.13,10.03.44,12.18.55,4.75.26,9.63-.01,14.39,0,4.06.01,8.12.03,12.18,0,2.21-.02,4.43.04,6.64,0-.06,8.12.08,16.24,0,24.35-.02,2.21.09,4.44,0,6.64-.19,4.41.17,8.87,0,13.28,0,.16-2.14.49-2.21,2.21-6.33-1.98-14.29-1.09-21.03-1.11-7-.02-14.03-.13-21.03,0-3.89,1.01-1.77-12.51-2.21-24.35-.25-6.53,1.23-19.75-1.66-21.03h-33.21c-1.18.84-.4,19.86-.55,23.24,0,.12-.99-.75-1.11,2.21-10.28-2.23-5.74,5.27-6.64,21.03-5.2.04-40.48,2.79-42.06.55v-46.49q-19.09-.28-38.19-.55c-3.69-1.64-.38-15.35-1.66-17.16-2.59-3.65-19.9,9.11-11.62-19.37,7.19-.16,14.4.22,21.58,0,8.65-.27,17.35.2,26.01,0q.28-11.07.55-22.14v-13.28c.25,0,4.18-2.21,4.43-2.21,13.64-.3,27.31.22,40.95,0,.42,11.96-.31,24,0,35.97.76,1.08,17.99.52,21.03.55,3.09.03,21.41.48,22.14-.55q.83-18.54,1.66-37.08c7.93,0,15.87.01,23.8,0Z"/>
      <path class="cls-1" d="m238.51,802.39c.44.03,6.21,3.08,8.85,0,.21,2.96,2.7,18.4.55,19.92h-36.53c-2.68-2.19-1.66-11.02-1.66-18.82,4.62,2.77,10.16.4,14.39,0,4.97-.48,9.25-1.49,14.39-1.11Z"/>
      <path class="cls-1" d="m238.51,802.39c-5.14-.38-9.42.63-14.39,1.11-5.11-12.41,18.44-13.04,14.39-1.11Z"/>
    </g>
    <path class="cls-1" d="m321.53,230.14c-.44,2.46-1.04,5.32,0,7.75-2.37.13-4.65.93-6.64,1.11-3.27.29-6.67-.2-9.96,0,.04-.57-2.26-8.45.55-9.96,2.65-1.42,12.32,1.83,16.05,1.11Z"/>
    <path class="cls-1" d="m314.89,239q-1.11,5.53-2.21,11.07c-1.93-.4-5.24.18-7.75,0-1.03-3.61-.23-7.47,0-11.07,3.29-.2,6.69.29,9.96,0Z"/>
    <path class="cls-1" d="m207.52,335.29c-.13,7,0,14.03,0,21.03,0,6.6-.9,14.91,1.11,21.03l-3.32,3.32c-2.55-5.27-37.94-.08-39.85-2.77v-41.51c14.1-1.03,27.94-1.53,42.06-1.11Z"/>
    <path class="cls-1" d="m182.06,392.85c-.92,7.98,1.1,13.67,1.11,14.39,0,.2-2.37,2.08-2.21,3.32-13.99,1.35-9.28-.99-9.96-17.71,3.68.14,7.4-.2,11.07,0Z"/>
    <path class="cls-1" d="m183.17,407.24c0-.72-2.03-6.41-1.11-14.39,2.37.13,11.11-.36,11.62,0,1.03.72,5.98,19.49-10.52,14.39Z"/>
    <path class="cls-1" d="m276.15,659.61c-1.06,6.34,1.14,15.77,1.11,16.6-.37,9.77-3.29,11.51-3.32,12.18h-14.39c.37-4.35-.25-8.92,0-13.28.04-.72,2.01-6.59,1.11-14.39.78.05,10.73-1.08,15.5-1.11Z"/>
    <path class="cls-1" d="m288.32,676.21c0,.14,2.22.87,2.21,1.66-.01,3.72,1.11,21.46-1.66,22.69-11.1,4.93-15.33-2.19-14.94-12.18.03-.67,2.95-2.41,3.32-12.18h11.07Z"/>
    <path class="cls-1" d="m427.79,865.49c-.78-.34-1.27,1.3-2.21,1.11,0-.11-2.2.35-2.21-.55-.08-4.69.06-38.15,1.66-39.29.61-.44,13.9-.7,14.94,1.66,4.27,40-15.6,5.46-12.18,37.08Z"/>
    <path class="cls-1" d="m748.78,289.91c1.96-7.19,1.72-14.79,2.21-22.14q12.45-.55,24.9-1.11.83,11.35,1.66,22.69c-.8,1.2-25.2.74-28.78.55Z"/>
    <path class="cls-1" d="m738.82,245.64c-.34,0-4.78-1.11-6.64-1.11,2.82-3.65-.31-16.32,1.66-17.71,1.43-1.01,26.04-6.25,19.37,17.16-1.87,2.65-8.33,1.62-14.39,1.66Z"/>
    <path class="cls-1" d="m779.77,225.71c-.04.83,3.44,14.82-.55,16.6-14.5,6.46-11.12-9.26-11.62-16.6h12.18Z"/>
    <path class="cls-1" d="m809.66,720.49c.72,7.88-4.55,32.57,0,35.42,3.94,2.47,9.91.02,11.07,1.66,1.36,1.92-1.12,9.99-1.11,10.52-17.45,2.48-10.14-7.05-12.73-8.85-.91-.63-7.27.9-8.3-.55-.65-.92.55-11.93,0-14.94-.28-1.51-2.03-.82-3.32-2.77.03-9.22-.05-18.45,0-27.67,0-.8,2.22-1.52,2.21-1.66,2.88.35,10.92-.5,11.62,0,1.15.82.39,7.02.55,8.85Z"/>
    <path class="cls-1" d="m809.66,755.91c-4.55-2.85.72-27.54,0-35.42,14.86-5.12,18.02,10.07,14.39,18.26-2.87,6.48-18.24-8.9-14.39,17.16Z"/>
    <path class="cls-1" d="m560.61,391.74c.24,8.47-.18,16.98,0,25.46-.75-.05,1.13,3.41-13.84,2.21-3.2-8.22-17.03-9.24-18.26,1.11q-7.19.83-14.39,1.66c-4.8,37.12,19.59.41,15.5,34.31-16.59,5.13-16.73-6.41-17.71,21.58q-8.85.55-17.71,1.11c-1.09-19.97-1.47-39.78-1.11-59.77,13.66-.65,24.39,2.83,22.14-7.19,2.49-4.47,9.98,6.08,7.75-20.48,3,.68,30.89.75,37.63,0Z"/>
    <path class="cls-1" d="m560.61,417.2c1.73.12-.56,1.91,4.43,2.21-3.11,6.52-.04,13.48,0,19.92,0,.83-3.03,9.87,0,16.6-1.72.08-.78,2.17-1.66,2.21-8.63.42-17.37-.31-26.01,0,.06-.83,4.34-11.22,2.21-16.05-1.45-3.28-8.78-.53-9.96-2.21-.56-.79-1.22-18.41-1.11-19.37,1.24-10.34,15.07-9.33,18.26-1.11,14.97,1.2,13.09-2.27,13.84-2.21Z"/>
    <path class="cls-1" d="m777.56,423.84c-.11,3.3.24,6.68,0,9.96h-31.55c-3.13,1.39-1.19,22.26-1.66,30.99-.16,3.04.45,11.86,0,12.73-2.5,4.88-20.11-3.46-13.28,13.84,0,.37,0,.74,0,1.11l-9.96,1.11c.02-2.97-.59-19.64,0-20.48,1.24-1.76,9.58,1.16,11.07-2.21,1.05-2.39-.79-38.15,0-46.49q22.69-.28,45.38-.55Z"/>
    <path class="cls-1" d="m692.33,344.15c.95.04,3.29,3.09,3.32,3.32,2.25,15.08-4.24,10.77-15.5,10.52q-.83,8.58-1.66,17.16c-5.35-.09-10.71.13-16.05,0,3.07-31.92-8.22-17.53-11.07-21.58-1.43-2.03.79-26.16,1.11-30.44,10.61.96,10.27-.82,9.96-11.07h1.11c.05,10.71,2.26,21.82,1.11,32.65l27.67-.55Z"/>
    <path class="cls-1" d="m731.07,388.42l-17.71,2.21c-.63-2.55-1.78-3.95-4.43-3.32-.92-9.1.18-9.35-14.39-6.64.29-3.54.87-20.19,2.77-21.03q18.26.55,36.53,1.11c-1.85,8.33.8,15.4.55,18.26-.05.59-2.46-4.56-3.32,9.41Z"/>
    <path class="cls-1" d="m601.57,454.84q-7.19.55-14.39,1.11c-.01-.12-.86.8-1.11-2.21,19.4,4.42,19.01-16.28,0-12.18-.15-1.94.59-9.15-.55-9.96-.36-.26-8.49-.26-8.85,0-1.14.81-.39,6.04-.55,7.75h-11.07c-.04-6.45-3.11-13.41,0-19.92,11.98.72,23.96,1.47,35.97,1.11,1.09,11.41.44,22.88.55,34.31Z"/>
    <path class="cls-1" d="m776.45,464.8c.25,6.08.12,10.59,0,16.6h-43.72c-2.6,1.77-1.59,5.94-1.66,9.96-6.82-17.3,10.79-8.96,13.28-13.84.45-.87-.16-9.69,0-12.73h32.1Z"/>
    <path class="cls-1" d="m731.07,388.42c-.64,10.44.47,21.08,0,31.55-6.8,2.08-16.82-.59-17.71-.55-.8-7.67,1.1-24.33,0-28.78l17.71-2.21Z"/>
    <path class="cls-1" d="m570.57,348.58c1.71.17,6.93-.59,7.75.55v23.8c-.77-.04-11.9,3.46-15.5-.55-.43-5.12.59-11.08,0-16.05-.31-2.57-.79-5.12-1.11-7.75,5.73,1.77,7.56-.13,8.85,0Z"/>
    <path class="cls-1" d="m713.36,390.64c1.1,4.45-.8,21.1,0,28.78-.48.02,3.96.66-7.75,1.11-.38-3.31.53-13.09,0-13.84-.96-1.35-9.88-.14-12.18-.55.32-2.79.92-6.28,1.11-8.85,12.26,2.58,15.73,3.3,14.39-9.96,2.65-.63,3.8.77,4.43,3.32Z"/>
    <path class="cls-1" d="m649.16,419.42c.04.73-.02,1.48,0,2.21-8.29-2.23-17.03-.78-25.46-1.11,1.89-3.8,1.07-8.95,1.11-13.28.1-11.39-.92-23.01,1.11-34.31,2.93.03,19.16-.52,19.92.55v44.27c1.56,2.32,3.31,1.47,3.32,1.66Z"/>
    <path class="cls-1" d="m603.78,465.91c.19,2.08.13,3.13-1.66,4.43-4.5-.15-9.4-1.13-13.84-1.11.76-4.24-.55-8.09-1.11-12.18-.05-.36.04-.74,0-1.11q7.19-.55,14.39-1.11c.12,12.46,2.15,10.32,2.21,11.07Z"/>
    <g>
      <path class="cls-1" d="m789.74,242.32c9.64-1.13,21.3-.02,30.99,1.11v46.49c-13.46.24-26.94-.18-40.4,0q-.83,20.75-1.66,41.51c-.81,1.14-21.9.45-25.46.55-2.66.08-16.92-.56-17.71.55v45.38c1.27,2.86,11.6,1.39,17.71,1.66,5.97.27,18.42-.69,21.03,0,.72.19,1.85-.47,3.32,1.66-.34,14.18.46,28.44,0,42.61q-22.69.28-45.38.55c-.79,8.34,1.05,44.1,0,46.49-1.49,3.37-9.83.45-11.07,2.21-.59.84.02,17.51,0,20.48-.04,6.6-4.85,20.72,9.41,14.39,3.97-1.76.53-12.88.55-15.5,0-.37,0-.74,0-1.11.07-4.02-.94-8.19,1.66-9.96h43.72c-.01.67,1.55,2.68,1.11,13.28-.1,2.35.57,13.59-.55,14.39-6.82.14-13.66-.19-20.48,0-3.32.09-22.44-.58-23.24.55q-.83,24.07-1.66,48.15c-12.71.33-25.49-.45-38.19,0-1.1.04-2.22-.04-3.32,0q-.55-67.8-1.11-135.59c2.15-2.88,9.41-1.39,16.6-1.66,11.71-.45,7.27-1.09,7.75-1.11.89-.03,10.91,2.63,17.71.55.47-10.46-.64-21.11,0-31.55.86-13.97,3.27-8.82,3.32-9.41.25-2.87-2.4-9.93-.55-18.26q-18.26-.55-36.53-1.11c-1.9.84-2.48,17.49-2.77,21.03-.44,5.47.4,11.13,0,16.6-.19,2.58-.78,6.06-1.11,8.85-.59,5.1,1.47,10.98-1.66,13.28h-42.61c-.01-.19-1.77.66-3.32-1.66v-44.27c-.76-1.08-16.99-.52-19.92-.55-3.5-.04-19.83-1.06-21.03,1.66.52,10.82-.71,21.86,0,32.65.36,5.56-1.25,11.22,1.66,13.28,5.71.16,11.45-.22,17.16,0,8.43.33,17.17-1.13,25.46,1.11,1.28,7.6-1.68,56.78,0,59.22.95,1.38,5.4-.64,6.64,2.21,4.76,10.92-5.15,13.57-5.53,14.39-.94,1.99,1.69,10.07-1.66,11.62-12.53,5.79-1.84-33.89-7.75-36.53-1.3-.58-10.68-.47-11.62,1.66-3.05,6.88,6.12,15.29-5.53,17.16-2.7.43-2.84,1.7-4.43-.55-1.14-15.09,9.62-31.63-14.39-24.9h-1.11c-.07-.75-2.09,1.39-2.21-11.07-.11-11.43.54-22.9-.55-34.31-12.02.36-23.99-.39-35.97-1.11-4.99-.3-2.69-2.09-4.43-2.21-.18-8.48.24-16.99,0-25.46-.16-5.71.12-11.44,0-17.16-.8-1.12-11.04-.45-13.28-.55.77-6.02-.57-11.8-1.11-17.71h16.6c.59,4.97-.43,10.93,0,16.05,3.59,4.01,14.72.51,15.5.55,7.9.41,15.8,1.98,23.8,1.11.91-.02.44-2.21.55-2.21,14.33-.32,29.43-.77,43.72,0,.87.05-3.94,2.83,16.05,3.32,5.34.13,10.7-.09,16.05,0q.83-8.58,1.66-17.16c11.26.26,17.75,4.56,15.5-10.52-.78-4.36,6.39-.81,8.85-2.77,2.26-1.79.11-12.74,1.66-13.84,1.29-.91,25.9,1.17,27.12-.55q-.83-20.2-1.66-40.4-19.65.83-39.29,1.66v52.58l-27.67.55c1.15-10.83-1.06-21.94-1.11-32.65-.02-3.69,1.19-8.09,1.11-12.18-.05-2.68.58-5.32-1.11-7.75,1.05,0,1.16-1.1,2.21-1.11,3.24,0,22.49.51,23.24-.55-.94-13.25,1.27-31.5,0-43.72,5.74-3.8,28.72-2.21,43.17-2.21,1.86,0,6.3,1.11,6.64,1.11-6.53-1.33-1.99,28.41-3.32,43.72.81,1.14,11.03.43,13.28.55,3.58.19,27.98.65,28.78-.55q-.83-11.35-1.66-22.69-12.45.55-24.9,1.11c.21-3.09-.66-19.06.55-19.92,4.58-1.52,28.56,1.79,29.89,1.11,4.29-2.22-3.21-5.29,8.3-6.64Z"/>
      <path class="cls-1" d="m709.49,341.94c.89-.46,19.01-.4,19.92,0,2.37,1.05,1.94,9.02,1.66,9.41-.66.92-21.76,1.21-22.69.55-1.34-.95-.55-9.11,1.11-9.96Z"/>
      <path class="cls-1" d="m721.11,493.58l9.96-1.11c-.02,2.62,3.42,13.73-.55,15.5-14.26,6.33-9.45-7.79-9.41-14.39Z"/>
    </g>
    <path class="cls-1" d="m425.57,510.18c7.2.04,14.76,1.07,22.14,1.11,7.38.03,14.76-.02,22.14,0-.06,6.65,2.97,47.73,1.11,50.36-15.12.15-30.29,1.21-45.38,1.66-.74.02-1.48-.02-2.21,0v-52.02c.12,0-.69-1.12,2.21-1.11Z"/>
    <path class="cls-1" d="m425.57,610.91c-.02,1.05,1.13,1.17,1.11,2.21,0,.11-2.19-.35-2.21.55-.4,15.85.3,31.74,0,47.6-.82,1.15-17.9.43-21.03.55-1.29-6.43,1.31-27.35,1.11-28.78,8.39,2.47,11.52-3.55,8.85-10.52-.67-1.76-14.81.95-9.96-9.96,1.49-3.37,18.51-.9,22.14-1.66Z"/>
    <path class="cls-1" d="m470.96,584.34c-.04.73.03,1.48,0,2.21-.1,2.44.4,13.27,0,13.84-1.12,1.59-8.84-.48-9.96,1.11-4.76,6.73,11.17,10.52-13.28,11.62v-28.23q11.62-.28,23.24-.55Z"/>
    <path class="cls-1" d="m511.91,478.08c-.29,8.43,2.5,17.93,1.11,26.56-7.98-.08-16.61,1.08-18.82-1.66-.31-7.9.43-15.91,0-23.8q8.85-.55,17.71-1.11Z"/>
    <path class="cls-1" d="m485.35,586.55h-14.39c.03-.74-.04-1.48,0-2.21.29-5.69-.21-11.46,0-17.16,20.12-6.64,13.3,2.62,14.39,19.37Z"/>
    <path class="cls-1" d="m534.05,502.43c-.58,0-.83,1.05-11.07,1.11.51-3.69-.91-24.41.55-25.46.48-.34,10.57-.72,11.62,1.66.48,1.08.41,19.33-1.11,22.69Z"/>
    <path class="cls-1" d="m472.06,699.45c-2.21,3.57-13.54,2.17-24.35,2.21v-39.85c3.8-.08,23.15-1.04,24.35,1.66v35.97Z"/>
    <path class="cls-1" d="m488.67,638.58c.03.74-.03,1.48,0,2.21q-7.19-.55-14.39-1.11c-.25-7.36.03-14.78,0-22.14,2.42.42,12.31-.82,13.28.55.59.84.97,17.5,1.11,20.48Z"/>
    <g>
      <path class="cls-1" d="m705.61,420.52c-7.19.27-14.46-1.22-16.6,1.66q.55,67.8,1.11,135.59c-6.91.25-14.07.79-21.03,1.11q.55-27.67,1.11-55.34c1.56-.12,5.86.54,6.64-.55,1.09-1.54,5.97-39.13-8.85-28.23.02-18.33-2.31-36.94-1.11-55.34h24.9c3.13-2.3,1.07-8.18,1.66-13.28,2.3.41,11.22-.8,12.18.55.53.75-.38,10.52,0,13.84Z"/>
      <path class="cls-1" d="m670.19,503.54c-5.2.4-13.78-1.15-8.85-8.3,3.09-4.49,6.61,10.01,6.64-20.48,14.82-10.9,9.94,26.69,8.85,28.23-.78,1.1-5.08.43-6.64.55Z"/>
    </g>
    <path class="cls-1" d="m777.56,433.81c-.14,1.94.59,9.15-.55,9.96-39.97-2.49-39.84,9.14,0,6.64,2.26,1.6-.58,13.67-.55,14.39h-32.1c.47-8.73-1.47-29.6,1.66-30.99h31.55Z"/>
    <path class="cls-1" d="m248.48,314.26c-.19,5.52.08,11.08,0,16.6-16.42,9.08-13.04-15.94-12.18-17.16.77-1.09,10.29-.97,12.18.55Z"/>
    <path class="cls-1" d="m327.06,263.35c-.54,3.9.72,23.89,0,24.9-.56.79-9.02.83-9.41.55-1.22-.87-.35-22.7-.55-26.56,3.3-.06,6.68.96,9.96,1.11Z"/>
    <path class="cls-1" d="m423.36,511.29v52.02c-5.89.17-11.81-.11-17.71,0,.7-3.39-2.72-1.55-3.32-2.77-1.1-2.21.26-43.31,1.11-49.26,6.64,0,13.28-.03,19.92,0Z"/>
    <path class="cls-1" d="m366.91,660.71q-.55.55-1.11,1.11c-3.84.53-3.15-1.11-3.32-1.11,1.12-19.53-17.72,10.06-13.28-31.55,3-.49,20.7-1.18,21.58-.55.67.48.96,12.98.55,13.84-1.35,2.87-9.03-2.86-4.43,18.26Z"/>
    <g>
      <path class="cls-1" d="m381.3,563.31c-1.11,0-2.21,0-3.32,0-1.13,0-5.02,1.11-6.64,1.11-.12,0,.7-1.1-2.21-1.11-1.04-26.26.66-13.33,12.18-19.92,0,6.64.02,13.28,0,19.92Z"/>
      <path class="cls-1" d="m377.98,563.31c-1.88,30.01,7.79,45.61-15.5,37.08-3.65-39.87,11.4-11.51,8.85-35.97,1.62,0,5.51-1.11,6.64-1.11Z"/>
    </g>
    <g>
      <path class="cls-1" d="m369.12,563.31c2.92,0,2.09,1.11,2.21,1.11,2.55,24.47-12.51-3.89-8.85,35.97,23.29,8.53,13.62-7.07,15.5-37.08,1.11,0,2.21,0,3.32,0,8.11-.03,16.24.15,24.35,0,5.9-.11,11.82.17,17.71,0,.74-.02,1.48.02,2.21,0-.21,15.86.29,31.74,0,47.6-3.62.76-20.64-1.71-22.14,1.66-4.84,10.92,9.29,8.2,9.96,9.96,2.66,6.97-.46,12.98-8.85,10.52-.04-.29-1.24-.03-1.66-5.53h-19.92q-.28,16.33-.55,32.65-7.75.28-15.5.55c-4.61-21.13,3.08-15.4,4.43-18.26.4-.86.12-13.36-.55-13.84-.88-.62-18.58.07-21.58.55-4.43,41.6,14.41,12.01,13.28,31.55-7.73.17-15.34,1.32-23.24,1.11-2.9-10.29,2.3-51.81,0-57-1.55-3.51-11.96-.34-13.28-2.21-.29-.41-.29-9.56,0-9.96,1.12-1.59,8.84.48,9.96-1.11.81-1.15-.07-24.26,0-28.23,11.07.02,22.14-.03,33.21,0Z"/>
      <path class="cls-1" d="m343.11,576.59c.77-.34,13.87-.76,14.94,1.66-1.51,17.53,7.32,32.17-16.6,24.35.81-3.99-1.77-24.48,1.66-26.01Z"/>
    </g>
    <path class="cls-1" d="m403.44,467.01v-47.6c3.79.04,20.9-1.12,22.14,1.66v44.27c-1.23,2.76-18.47,1.65-22.14,1.66Z"/>
    <path class="cls-1" d="m596.03,329.76c.46,6.28,1.69,12.46,1.11,18.82-.59-.15-11.23.78-12.18-.55-.15-6.08.21-12.19,0-18.26h11.07Z"/>
    <g>
      <path class="cls-1" d="m627.03,253.39c-.3,7.35.42,14.8,0,22.14-.08,1.47-1.1,1.03-1.11,1.11q-11.62-.55-23.24-1.11c.12-3.23-.59-21.32.55-22.14,7.93,0,15.87,0,23.8,0Z"/>
      <path class="cls-1" d="m639.2,292.13c1.81-.18,3.71.12,5.53,0,.01,2.95-.02,5.9,0,8.85.02,3.66-.72,7.81,1.11,11.07-10.85,2.32,5.02,16.69-21.03,9.41-.98-10.53.83-21.11,1.11-31.55-1.56,2.81,7.27,2.8,13.28,2.21Z"/>
      <g>
        <path class="cls-1" d="m625.92,276.63c-.26,4.39.12,8.87,0,13.28-.27,10.44-2.09,21.02-1.11,31.55,26.05,7.28,10.18-7.09,21.03-9.41,1.5-.32,4.55.01,6.64,0-.19,3.66.27,7.42,0,11.07-.32,4.28-2.53,28.41-1.11,30.44,2.84,4.05,14.14-10.34,11.07,21.58-19.99-.49-15.18-3.27-16.05-3.32-14.29-.77-29.39-.32-43.72,0v-21.58c-5.47-.43-5.25-1.59-5.53-1.66.58-6.35-.64-12.54-1.11-18.82-1.83-24.85,2.36-25.8-12.18-24.35-.29-4.02.23-8.15,0-12.18-1.1-3.91,8.42-1.65,18.26-2.21,1.12-.79.47-13.05.55-15.5q11.62.55,23.24,1.11Z"/>
        <path class="cls-1" d="m603.23,307.62c.5-.35,11.68-.35,12.18,0,.74.52.89,11.15.55,11.62-.51.72-12.21.92-12.73.55-.91-.65-.91-11.53,0-12.18Z"/>
      </g>
    </g>
    <path class="cls-1" d="m662.44,312.05c.31,10.25.65,12.03-9.96,11.07.27-3.65-.19-7.4,0-11.07,3.32-.02,6.64.01,9.96,0Z"/>
    <path class="cls-1" d="m560.61,345.26h-14.39c.04-4.21-1.83-8.86,0-13.28,4.6.18,9.23-.13,13.84,0,1.31.93.21,10.89.55,13.28Z"/>
    <g>
      <path class="cls-1" d="m370.23,241.21c-6.29,23.18,9.46,11.1,12.18,14.94.96,1.36-.72,28.53,0,33.21q-12.18.28-24.35.55h-16.6c-.02-.17-3.14.46-3.32-.55-3.24-18.53,5.63-12.95,6.64-14.39.32-.45.32-10.62,0-11.07-.81-1.15-15.01-.43-17.71-.55-3.28-.15-6.66-1.17-9.96-1.11-.21-3.85.15-7.76,0-11.62-.67-1.14-3.21-.3-4.43-.55q1.11-5.53,2.21-11.07c1.99-.17,4.27-.98,6.64-1.11,1.47-.08,2.97.13,4.43,0-4.16,28.5,16.3,24.39,5.53,0,7.27-1.2,8.06-3.9,3.32-16.6,2.4-.11,2.49-1.09,3.32-1.11.11,0-.34,2.23.55,2.21,4.04-.06,25.35-.53,26.56,0,1.37.6,3,15.78,4.98,18.82Z"/>
      <path class="cls-1" d="m331.49,237.89c10.77,24.39-9.69,28.5-5.53,0,1.79-.16,3.87.27,5.53,0Z"/>
    </g>
    <path class="cls-1" d="m576.11,455.94c3.45.22,7.36,2.11,11.07,1.11.56,4.09,1.87,7.93,1.11,12.18-16.79.09-33.58-.07-50.36,0-.93-.66-.68-9.21-.55-11.07,8.64-.31,17.38.42,26.01,0,.88-.04-.06-2.13,1.66-2.21,3.51-.16,7.57-.23,11.07,0Z"/>
    <g>
      <path class="cls-1" d="m528.51,420.52c-.12.96.55,18.58,1.11,19.37,1.18,1.69,8.52-1.07,9.96,2.21,2.13,4.83-2.16,15.22-2.21,16.05-.12,1.86-.38,10.41.55,11.07,16.79-.07,33.58.09,50.36,0,4.44-.02,9.33.96,13.84,1.11,1.79-1.29,1.85-2.35,1.66-4.43h1.11v39.85c-.37-.02-.74.03-1.11,0-5.05-.4-10.36-1.54-15.5-1.66,2.4-25.53-5.67-14.07-7.75-18.82-.69-1.57.94-7.24-.55-8.3-1.2-.85-18.04-2.63-12.73,9.41,2.55,5.77,14.17-7.86,11.07,17.16-2.68-.57-10.44.19-15.5,0-8.06-.31-16.27-.03-24.35,0-3.48.01-3.76-1.11-4.43-1.11,1.51-3.36,1.58-21.61,1.11-22.69-1.06-2.38-11.14-2-11.62-1.66-1.46,1.04-.04,21.77-.55,25.46-.5,0-1.45,1.19-9.96,1.11,1.4-8.64-1.4-18.14-1.11-26.56.98-27.99,1.12-16.45,17.71-21.58,4.09-33.9-20.29,2.8-15.5-34.31q7.19-.83,14.39-1.66Z"/>
      <path class="cls-1" d="m545.67,478.08c19.01-8.43,18.97,21.72,0,13.28-2.53-1.13-2.53-12.16,0-13.28Z"/>
    </g>
    <path class="cls-1" d="m576.11,439.34c-.52,5.44.38,11.14,0,16.6-3.5-.23-7.55-.16-11.07,0-3.03-6.73,0-15.77,0-16.6h11.07Z"/>
    <path class="cls-1" d="m586.07,441.55c.3,4.01-.33,8.17,0,12.18.25,3.01,1.09,2.09,1.11,2.21.04.36-.05.75,0,1.11-3.71,1-7.62-.88-11.07-1.11.38-5.47-.52-11.17,0-16.6.16-1.71-.59-6.94.55-7.75.36-.26,8.49-.26,8.85,0,1.14.81.41,8.02.55,9.96Z"/>
    <path class="cls-1" d="m586.07,453.73c-.33-4.01.3-8.16,0-12.18,19.01-4.11,19.4,16.59,0,12.18Z"/>
  </g>
</svg>